<?xml version="1.0" standalone="no"?>
<!DOCTYPE svg PUBLIC "-//W3C//DTD SVG 1.1//EN" "http://www.w3.org/Graphics/SVG/1.1/DTD/svg11.dtd" >
<svg xmlns="http://www.w3.org/2000/svg">
<metadata>Generated by IcoMoon</metadata>
<defs>
<font id="icomoon" horiz-adv-x="1024">
<font-face units-per-em="1024" ascent="960" descent="-64" />
<missing-glyph horiz-adv-x="1024" />
<glyph unicode="&#x20;" horiz-adv-x="512" d="" />
<glyph unicode="&#xe900;" glyph-name="sticker3" d="M881.824 599.253l-54.232 70.851 11.584 88.482c1.328 10.127-4.313 19.887-13.752 23.793l-82.442 34.133-34.131 82.442c-3.904 9.439-13.654 15.073-23.793 13.752l-88.484-11.584-70.849 54.23c-8.102 6.198-19.347 6.198-27.449 0l-70.851-54.232-88.482 11.584c-10.125 1.323-19.887-4.313-23.793-13.752l-34.133-82.442-82.442-34.131c-9.439-3.909-15.079-13.666-13.752-23.795l11.584-88.484-54.232-70.847c-6.201-8.1-6.201-19.349 0-27.449l54.232-70.851-11.584-88.482c-1.328-10.127 4.313-19.887 13.752-23.793l82.442-34.131 34.131-82.444c3.024-7.309 9.556-12.327 17.057-13.607v-299.913c0-8.235 4.482-15.818 11.701-19.787 7.212-3.967 16.021-3.692 22.976 0.718l145.121 92.047 145.121-92.047c3.685-2.337 7.885-3.514 12.094-3.514 3.739 0 7.485 0.928 10.879 2.793 7.217 3.97 11.701 11.552 11.701 19.787v299.918c7.488 1.287 14.032 6.3 17.055 13.603l34.133 82.442 82.442 34.131c9.439 3.909 15.079 13.666 13.752 23.795l-11.584 88.484 54.232 70.851c6.196 8.097 6.196 19.349-0.005 27.449zM524.095 77.366c-7.384 4.683-16.807 4.683-24.191 0l-122.54-77.725v263.739l50.059 6.553 70.851-54.232c4.051-3.1 8.888-4.649 13.724-4.649s9.674 1.551 13.724 4.649l70.851 54.232 50.059-6.555v-263.737l-122.538 77.725zM786.064 520.993c-3.631-4.744-5.234-10.733-4.46-16.655l10.545-80.561-75.087-31.087c-5.535-2.292-9.933-6.688-12.225-12.225l-31.089-75.087-80.561 10.547c-5.921 0.772-11.911-0.829-16.655-4.46l-64.533-49.395-64.533 49.395c-3.961 3.033-8.791 4.649-13.724 4.649-0.975 0-1.953-0.063-2.931-0.19l-80.563-10.547-31.087 75.089c-2.292 5.537-6.691 9.933-12.225 12.227l-75.087 31.087 10.545 80.558c0.777 5.923-0.826 11.911-4.46 16.655l-49.395 64.535 49.395 64.533c3.631 4.744 5.234 10.733 4.46 16.655l-10.545 80.561 75.089 31.082c5.535 2.292 9.933 6.688 12.225 12.225l31.089 75.087 80.561-10.547c5.925-0.777 11.911 0.829 16.655 4.46l64.533 49.395 64.533-49.395c4.744-3.631 10.737-5.236 16.655-4.46l80.563 10.547 31.087-75.087c2.292-5.537 6.688-9.933 12.225-12.225l75.087-31.089-10.545-80.558c-0.777-5.923 0.826-11.911 4.46-16.655l49.395-64.533-49.397-64.533zM374.072 731.209c5.040 0 10.114 1.68 14.314 5.128 34.713 28.492 78.612 44.183 123.615 44.183 12.469 0 22.581 10.109 22.581 22.581s-10.112 22.581-22.581 22.581c-55.422 0-109.498-19.333-152.27-54.435-9.64-7.912-11.040-22.14-3.127-31.78 4.464-5.442 10.94-8.258 17.468-8.258zM592.521 811.842c-11.751 4.177-24.663-1.958-28.844-13.704-4.18-11.749 1.955-24.663 13.704-28.842 77.526-27.582 129.613-101.434 129.613-183.768 0-107.52-87.473-194.992-194.992-194.992s-194.992 87.473-194.992 194.992c0 38.247 11.062 75.268 31.992 107.064 6.858 10.416 3.972 24.419-6.444 31.276-10.414 6.855-24.419 3.974-31.276-6.444-25.798-39.189-39.432-84.797-39.432-131.895 0-132.422 107.732-240.154 240.154-240.154s240.154 107.732 240.154 240.154c0 101.391-64.151 192.341-159.633 226.314z" />
<glyph unicode="&#xe901;" glyph-name="users53" d="M481.206 337.702v-34.085h60.955v34.085c-10.052-1.92-20.212-2.993-30.463-2.993-10.249-0.002-20.438 1.072-30.492 2.993zM797.339 386.488l-125.158 37.323c-8.070-10.103-16.536-19.332-25.235-27.817l32.577-9.724c-21.764-86.625-80.769-323.228-97.373-407.734-13.332-3.227-26.893-5.805-40.817-7.176l35.227 83.182-33.867 226.5h-61.388l-33.87-226.5 35.223-83.182c-14.191 1.387-27.948 4.050-41.475 7.356-16.636 84.576-75.511 320.667-97.309 407.374l32.742 9.771c-8.732 8.485-17.162 17.697-25.268 27.817l-124.693-37.192c-27.98-8.335-47.132-34.035-47.132-63.207v-54.807c0-183.617 148.838-332.472 332.474-332.472 183.634 0 332.472 148.855 332.472 332.472v54.807c0.002 29.172-19.148 54.872-47.132 63.209zM726.573 693.59c6.15 38.738 3.407 80.314-1.967 112.805-11.477 69.44-39.030 118.308-39.030 118.308l-12.867-53.963-1.256-5.308c-0.099 2.168-0.429 4.566-0.662 6.897-3.075 29.437-16.274 69.308-16.274 69.308-29.634-14.106-78.254-12.7-78.254-12.7 13.461 9.889 48.621 19.747 48.621 19.747-87.581 27.601-143.578-1.273-170.833-23.003-5.89-4.714-10.452-9.030-13.694-12.419l9.989 11.526 20.741 23.898c-41.811-4.101-72.273-32.347-90.796-55.418-13.362-16.638-20.702-30.661-20.702-30.661l3.572 18.374 7.704 39.491c-28.741-22.986-46.072-56.41-56.691-90.493-16.001-51.457-17.668-114.089-17.118-136.288-16.659-6.886-29.2-22.432-34.677-43.112-5.192-19.732-3.836-42.735 3.836-64.747 12.106-34.76 37.869-60.312 65.92-66.035 34.828-74.716 98.895-151.217 179.561-151.217 80.606 0 144.674 76.385 179.502 151.052 27.616 5.408 53.813 31.11 66.049 66.2 16.405 47.274 2.916 93.797-30.674 107.759zM725.269 596.96c-10.088-28.908-30.594-44.501-45.146-44.501-8.106-0.992-13.133-3.906-15.842-10.17-29.473-67.606-85.037-139.844-152.579-139.844-67.536 0-123.104 72.235-152.577 139.844-2.68 6.184-9.487 10.17-16.238 10.17-14.155 0-34.629 15.593-44.685 44.501-5.393 15.513-6.518 31.901-3.075 44.966 1.688 6.3 5.922 17.38 15.777 20.804 1.060 0.364 3.143 0.577 4.164 0.677 8.369 0.81 14.887 7.641 15.284 16.041 0.366 7.823 1.301 15.373 3.177 22.773 25.243 99.629 112.058 106.75 112.058 106.75-15.614-36.697-40.847-52.21-40.847-52.21 83.248 33.87 109.18 70.567 109.18 70.567 55.403-76.916 131.739-110.288 175.828-123.965 1.288-7.905 2.912-15.694 3.308-23.915 0.398-8.4 6.914-15.231 15.284-16.041 1.019-0.099 3.107-0.313 4.196-0.677 14.984-5.224 23.915-33.538 12.734-65.77z" />
<glyph unicode="&#xe902;" glyph-name="award71" d="M555.51 451.090l174.263 122.68v386.23h-435.546v-386.23l174.263-122.68c-122.382-20.765-215.896-127.48-215.896-255.685 0-143.035 116.371-259.406 259.406-259.406s259.406 116.371 259.406 259.406c0 128.204-93.511 234.919-215.896 255.685zM512 463.542l-120.095 84.547v376.683h240.191v-376.683l-120.095-84.547zM694.545 592.054l-27.222-19.164v351.883h27.222v-332.718zM329.455 924.772h27.222v-351.883l-27.222 19.164v332.718zM512-28.772c-123.612 0-224.178 100.566-224.178 224.178s100.566 224.178 224.178 224.178 224.178-100.566 224.178-224.178-100.566-224.178-224.178-224.178zM512 385.237c-104.675 0-189.831-85.159-189.831-189.831s85.159-189.831 189.831-189.831 189.831 85.159 189.831 189.831-85.156 189.831-189.831 189.831zM512 40.803c-85.248 0-154.603 69.354-154.603 154.603s69.354 154.603 154.603 154.603 154.603-69.354 154.603-154.603-69.354-154.603-154.603-154.603z" />
<glyph unicode="&#xe903;" glyph-name="calendar60" d="M262.262 380.749c5.025-6.438 7.517-15.299 7.517-26.575v-269.166c0-31.508-10.736-47.269-32.209-47.269-9.546 0-17.236 3.219-23.032 9.643-5.801 6.419-8.701 15.903-8.701 28.45v213.925c-39.82-30.552-66.625-45.838-80.41-45.838-6.575 0-12.418 2.61-17.507 7.844-5.096 5.254-7.648 11.34-7.648 18.228 0 7.998 2.513 13.868 7.529 17.624 5.022 3.775 13.868 8.627 26.561 14.587 18.961 8.928 34.129 18.355 45.484 28.213 11.368 9.868 21.436 20.916 30.217 33.114 8.774 12.243 14.506 19.763 17.162 22.603 2.667 2.817 7.681 4.198 15.051 4.198 8.315 0.048 14.984-3.168 19.986-9.581zM401.133 381.564c-14.803-5.884-27.049-13.594-36.677-23.157-9.645-9.567-16.891-20.204-21.744-31.972-4.855-11.74-7.285-23.030-7.285-33.84 0-8.951 2.587-15.993 7.761-21.174 5.174-5.192 11.681-7.768 19.517-7.768 8.933 0 15.717 2.814 20.342 8.448 4.623 5.631 8.774 13.705 12.459 24.241 3.685 10.481 6.314 16.896 7.878 19.258 11.752 18.019 27.896 27.055 48.434 27.055 9.716 0 18.679-2.19 26.915-6.587 8.253-4.414 14.741-10.536 19.517-18.483 4.774-7.906 7.182-16.896 7.182-26.915 0-9.27-2.226-18.681-6.704-28.324-4.485-9.643-10.984-19.039-19.533-28.188-8.533-9.188-19.235-18.329-32.080-27.382-7.216-4.889-19.193-15.014-35.967-30.451s-35.579-33.994-56.422-55.602c-5.027-5.33-9.643-12.662-13.882-21.978-4.218-9.342-6.343-16.806-6.343-22.451 0-8.774 3.295-16.406 9.884-22.918 6.592-6.513 15.759-9.758 27.513-9.758h173.009c10.373 0 18.065 2.667 23.17 7.995 5.11 5.316 7.641 11.825 7.641 19.506 0 8.629-3.217 15.446-9.622 20.445-6.438 5.041-15.782 7.543-27.99 7.543h-122.746c3.931 5.934 7.763 11.040 11.536 15.288 8.779 10.66 24.946 25.633 48.546 44.902 23.584 19.29 40.415 33.422 50.421 42.435 10.031 9.002 19.86 21.47 29.514 37.378 9.631 15.89 14.46 33.567 14.46 53.001 0 12.372-2.327 24.354-6.941 35.843-4.602 11.54-11.060 21.688-19.386 30.451-8.335 8.763-17.964 15.676-28.919 20.675-16.917 7.522-37.385 11.295-61.371 11.295-19.915 0-37.27-2.941-52.087-8.813zM1024 639.528c0-174.24-141.751-316.010-316.013-316.010v-330.337c0-29.054-23.66-52.716-52.725-52.716h-602.541c-29.066-0.002-52.721 23.662-52.721 52.716v552.359c0 0.825 0.209 1.585 0.246 2.396v91.592c0 11.164 14.396 20.216 32.183 20.216h57.472v37.741c0 33.422 27.161 60.585 60.565 60.585 33.41 0 60.571-27.161 60.571-60.585v-37.741h94.88v37.741c0 33.422 27.175 60.585 60.587 60.585 16.489 0 31.255-6.785 42.132-17.518 42.244 124.835 160.43 214.987 299.349 214.987 174.263 0 316.015-141.763 316.015-316.010zM336.056 659.744h56.647c0.756 11.906 2.19 23.623 4.232 35.133v2.596c0 16.792-13.661 30.449-30.428 30.449-16.804 0-30.449-13.672-30.449-30.449v-37.73zM120.012 659.744h60.905v37.741c0 16.79-13.672 30.449-30.449 30.449-16.772 0-30.456-13.672-30.456-30.449v-37.741zM662.844 326.801c-80.183 11.529-150.762 53.268-199.75 113.288h-417.916v-446.911c0-4.147 3.4-7.515 7.543-7.515h602.58c4.124 0 7.543 3.37 7.543 7.515v333.623zM972.501 639.528c0 145.848-118.678 264.514-264.514 264.514-145.852 0-264.512-118.666-264.512-264.514 0-145.846 118.659-264.512 264.512-264.512 145.848 0 264.514 118.666 264.514 264.512zM889.256 766.964c-9.234 10.856-25.489 12.119-36.271 2.911l-148.001-126.122-154.169 87.105c-12.347 7-28.089 2.619-35.083-9.764-6.989-12.37-2.61-28.087 9.76-35.076l169.811-95.951c3.961-2.238 8.322-3.338 12.648-3.338 5.983 0 11.94 2.086 16.694 6.153l161.703 137.791c10.86 9.231 12.131 25.482 2.909 36.291z" />
<glyph unicode="&#xe904;" glyph-name="configuration28" d="M972.512 554.272l-98.048 19.648c-4.928 14.176-10.752 27.936-17.184 41.248l55.552 83.328c16.928 25.376 13.568 59.2-8 80.736l-61.568 61.568c-12.384 12.384-28.736 18.752-45.312 18.752-12.256 0-24.64-3.52-35.424-10.752l-83.328-55.52c-13.376 6.464-27.136 12.224-41.312 17.152l-19.648 98.080c-5.952 29.952-32.256 51.456-62.752 51.456h-87.040c-30.496 0-56.768-21.536-62.752-51.456l-19.648-98.080c-14.176-4.928-27.936-10.72-41.248-17.152l-83.296 55.52c-10.848 7.232-23.2 10.752-35.488 10.752-16.544 0-32.896-6.368-45.28-18.752l-61.536-61.568c-21.568-21.568-24.928-55.36-8-80.736l55.52-83.328c-6.464-13.344-12.224-27.104-17.152-41.28l-98.112-19.616c-29.92-5.952-51.456-32.224-51.456-62.72v-87.040c0-30.496 21.536-56.8 51.456-62.752l98.080-19.68c4.928-14.176 10.72-27.936 17.152-41.248l-55.488-83.328c-16.928-25.376-13.568-59.2 8-80.736l61.568-61.568c12.384-12.384 28.736-18.752 45.28-18.752 12.288 0 24.672 3.552 35.456 10.752l83.328 55.552c13.344-6.496 27.104-12.256 41.28-17.184l19.616-98.048c5.984-29.984 32.256-51.52 62.752-51.52h87.040c30.496 0 56.8 21.568 62.752 51.488l19.68 98.048c14.176 4.928 27.936 10.752 41.248 17.184l83.328-55.552c10.816-7.2 23.2-10.752 35.424-10.752 16.576 0 32.928 6.368 45.312 18.752l61.568 61.568c21.568 21.568 24.928 55.36 8 80.736l-55.552 83.328c6.496 13.376 12.256 27.136 17.184 41.312l98.048 19.616c29.92 5.952 51.488 32.288 51.488 62.752v87.040c0 30.528-21.568 56.8-51.488 62.752zM861.888 384.832c-22.24-4.448-40.448-20.32-47.872-41.76-4.128-11.808-8.928-23.264-14.304-34.368-9.952-20.448-8.256-44.576 4.32-63.424l55.552-83.328-61.568-61.568-83.328 55.552c-10.688 7.136-23.072 10.752-35.488 10.752-9.504 0-19.072-2.112-27.872-6.368-11.136-5.376-22.56-10.24-34.432-14.368-21.376-7.424-37.248-25.632-41.696-47.872l-19.68-98.080h-87.040l-19.616 98.112c-4.448 22.24-20.32 40.448-41.728 47.872-11.808 4.128-23.296 8.928-34.4 14.304-8.832 4.32-18.368 6.432-27.904 6.432-12.448 0-24.8-3.616-35.488-10.752l-83.328-55.552-61.568 61.568 55.52 83.328c12.576 18.88 14.208 43.008 4.384 63.36-5.376 11.136-10.208 22.56-14.336 34.432-7.424 21.376-25.664 37.248-47.872 41.696l-98.080 19.68-0.064 87.072 98.112 19.616c22.208 4.448 40.448 20.32 47.872 41.728 4.128 11.808 8.896 23.296 14.304 34.4 9.92 20.416 8.256 44.544-4.352 63.392l-55.488 83.296 61.536 61.568 83.328-55.52c10.688-7.136 23.072-10.752 35.488-10.752 9.504 0 19.040 2.112 27.872 6.368 11.104 5.376 22.56 10.208 34.4 14.336 21.408 7.424 37.28 25.664 41.728 47.872l19.648 98.080 87.040 0.032 19.616-98.112c4.448-22.208 20.32-40.448 41.76-47.872 11.808-4.128 23.264-8.896 34.368-14.304 8.864-4.288 18.368-6.4 27.936-6.4 12.448 0 24.8 3.616 35.488 10.752l83.328 55.52 61.568-61.568-55.552-83.328c-12.576-18.88-14.176-42.976-4.384-63.36 5.376-11.104 10.24-22.56 14.368-34.4 7.424-21.408 25.632-37.28 47.872-41.728l98.048-19.648 0.096-87.040-98.112-19.648zM512 672c-123.68 0-224-100.32-224-224 0-123.712 100.32-224 224-224s224 100.32 224 224-100.32 224-224 224zM512 251.968c-108.224 0-196 87.808-196 196 0 108.224 87.776 196 196 196 108.192 0 196-87.776 196-196 0-108.192-87.808-196-196-196zM512 576c-70.72 0-128-57.28-128-128 0-70.688 57.28-128 128-128 70.688 0 128 57.312 128 128s-57.312 128-128 128zM512 351.968c-52.992 0-96 43.008-96 96s43.008 96 96 96 96-43.008 96-96-43.008-96-96-96z" />
<glyph unicode="&#xe905;" glyph-name="documents25" d="M146.83 597.58l-68.73 29.59 72.992 16.502 6.921 74.473 38.264-64.287 72.992 16.502-49.417-56.308 38.264-64.317-68.7 29.62-49.387-56.247 6.8 74.473zM525.148 590.991l-401.983-100.617 3.294-13.299 402.014 100.617-3.325 13.299zM539.021 535.469l-401.983-100.556 3.325-13.299 401.953 100.526-3.294 13.329zM552.38 482.123l-401.983-100.556 3.325-13.329 401.983 100.617-3.325 13.268zM566.192 426.631l-401.893-100.647 3.325-13.299 401.923 100.556-3.355 13.389zM578.766 376.731l-401.923-100.677 3.294-13.329 401.983 100.647-3.355 13.359zM592.669 321.149l-401.923-100.556 3.325-13.329 401.953 100.556-3.355 13.329zM606.028 267.863l-401.983-100.556 3.325-13.299 401.953 100.526-3.294 13.329zM619.81 212.432l-401.893-100.707 3.294-13.238 401.923 100.647-3.325 13.299zM1023.456 716.634l-193.224-679.020c-2.146-7.707-10.276-12.12-17.923-9.944l-264.221 75.168-373.301-84.356c-7.919-1.813-15.686 3.143-17.439 10.971l-156.955 694.041c-1.844 7.919 3.083 15.717 11.032 17.5l476.789 107.81 5.289 18.558c2.206 7.737 10.216 12.211 17.953 10.004l501.905-142.87c7.798-2.146 12.241-10.186 10.095-17.863zM667.293 159.841l-150.517 665.419-484.647-109.624 150.396-665.449 484.768 109.654zM991.539 710.619l-447.683 127.365 24.059-106.359 18.86-5.44 41.438 61.658 2.75-74.201 71.36-20.341-69.788-25.509 2.69-74.17-45.699 58.424-3.325-1.209 16.805-74.352 284.441-73.989-3.415-13.178-277.671 72.206 10.639-47.301 256.151-66.614-3.415-13.178-249.29 64.831 10.216-44.853 228.798-59.512-3.385-13.238-222.028 57.789 10.699-47.331 200.448-52.197-3.385-13.208-193.617 50.444 9.309-41.135 174.817-45.488-3.355-13.238-168.138 43.644 10.699-47.241 146.618-38.173-3.415-13.238-139.727 36.36 10.216-44.913 119.205-30.95-3.325-13.238-112.525 29.257 10.609-46.817c0.030-0.212-0.030-0.393 0-0.574l91.005-23.726-3.415-13.208-91.882 23.817c-1.813-1.844-4.050-3.294-6.77-3.99l-80.88-18.286 199.148-56.671 185.154 651.274z" />
<glyph unicode="&#xe906;" glyph-name="donation5" d="M1007.66 85.931h-991.319c-9.024 0-16.34-7.316-16.34-16.34s7.316-16.34 16.34-16.34h991.319c9.024 0 16.34 7.316 16.34 16.34s-7.316 16.34-16.34 16.34zM1007.66 151.293h-991.319c-9.024 0-16.34-7.316-16.34-16.34s7.316-16.34 16.34-16.34h991.319c9.024 0 16.34 7.316 16.34 16.34s-7.316 16.34-16.34 16.34zM1007.66 842.75h-991.319c-9.024 0-16.34-7.316-16.34-16.34v-626.095c0-9.024 7.316-16.34 16.34-16.34h991.319c9.024 0 16.34 7.316 16.34 16.34v626.095c0 9.024-7.316 16.34-16.34 16.34zM991.319 216.654h-958.638v593.415h958.638v-593.415zM81.702 352.69c47.98 0 87.014-39.034 87.014-87.014 0-9.024 7.316-16.34 16.34-16.34h653.887c9.024 0 16.34 7.316 16.34 16.34 0 47.98 39.034 87.014 87.014 87.014 9.024 0 16.34 7.316 16.34 16.34v288.663c0 9.024-7.316 16.34-16.34 16.34-47.98 0-87.014 39.034-87.014 87.014 0 9.024-7.316 16.34-16.34 16.34h-65.362c-9.024 0-16.34-7.316-16.34-16.34s7.316-16.34 16.34-16.34h50.132c7.262-52.952 49.291-94.981 102.243-102.243v-258.205c-52.952-7.262-94.981-49.294-102.243-102.243h-623.429c-7.26 52.952-49.291 94.981-102.243 102.243v258.205c52.952 7.262 94.981 49.291 102.243 102.243h507.932c9.024 0 16.34 7.316 16.34 16.34s-7.316 16.34-16.34 16.34h-523.164c-9.024 0-16.34-7.316-16.34-16.34 0-47.98-39.034-87.014-87.014-87.014-9.024 0-16.34-7.316-16.34-16.34v-288.663c0.002-9.024 7.318-16.34 16.343-16.34zM512 712.026c-109.544 0-198.665-89.121-198.665-198.665s89.121-198.665 198.665-198.665 198.665 89.121 198.665 198.665-89.121 198.665-198.665 198.665zM512 347.378c-91.524 0-165.984 74.46-165.984 165.984s74.46 165.984 165.984 165.984 165.984-74.46 165.984-165.984-74.46-165.984-165.984-165.984zM558.947 616.851c-17.593 0-34.256-6.623-46.947-18.079-12.691 11.458-29.354 18.079-46.947 18.079-38.629 0-70.057-31.428-70.057-70.057 0-15.384 4.9-29.99 14.166-42.239l89.807-118.703c3.087-4.083 7.911-6.482 13.031-6.482s9.942 2.399 13.031 6.482l89.807 118.701c9.266 12.249 14.166 26.855 14.166 42.239 0 38.631-31.428 70.059-70.057 70.059zM588.776 524.273l-76.776-101.478-76.776 101.481c-4.937 6.525-7.547 14.312-7.547 22.519 0 20.609 16.767 37.376 37.376 37.376 13.547 0 26.064-7.371 32.67-19.236 2.885-5.181 8.349-8.395 14.277-8.395s11.393 3.211 14.277 8.395c6.604 11.865 19.123 19.236 32.67 19.236 20.609 0 37.376-16.767 37.376-37.376 0-8.207-2.61-15.996-7.547-22.521z" />
<glyph unicode="&#xe907;" glyph-name="earth53" d="M746.167 732.246l0.99-7.602-11.393-2.359-1.516-16.194h13.646l18.153 1.748 9.371 11.14-9.961 3.875-5.454 6.276-8.192 13.267-3.917 18.764-15.394-3.138-4.317-6.613v-7.455l7.413-5.075zM733.047 726.012l0.821 10.15-9.034 3.896-12.635-2.927-9.371-15.036v-9.75h10.93zM472.967 682.904l-2.78-7.16h-13.457v-6.95h3.201c0 0 0.19-1.474 0.463-3.412l8.255 0.695 5.159 3.201 1.348 6.465 6.676 0.569 2.632 5.433-6.128 1.264-5.37-0.105zM438.283 670.29l-0.526-6.802 9.75 0.821 1.011 6.823-5.854 4.612zM1023.874 453.296c-0.147 14.973-0.906 29.841-2.317 44.477-4.738 48.794-16.405 95.566-33.884 139.411-1.306 3.264-2.506 6.57-3.896 9.792-23.291 55.027-55.996 105.127-96.030 148.362-2.632 2.822-5.307 5.602-7.981 8.339-7.56 7.855-15.331 15.521-23.376 22.87-91.018 82.868-211.897 133.452-344.401 133.452-133.62 0-255.363-51.49-346.633-135.621-21.27-19.606-40.813-41.002-58.544-63.914-66.884-86.511-106.812-194.881-106.812-312.454 0-282.34 229.692-512.011 512.011-512.011 198.588 0 370.999 113.719 455.867 279.412 18.153 35.421 32.284 73.18 41.802 112.751 2.422 10.045 4.507 20.133 6.318 30.346 5.159 29.083 7.981 58.987 7.981 89.501 0.021 1.769-0.084 3.517-0.105 5.286zM927.507 657.928l2.969 3.327c3.896-7.56 7.539-15.247 11.014-23.039l-4.844 0.19-9.14-1.264v20.785zM853.526 747.261l0.084 22.87c8.045-8.529 15.794-17.311 23.207-26.408l-9.224-13.731-32.242 0.295-2.022 6.718 20.196 10.256zM235.904 804.099v0.863h10.256l0.884 3.517h16.784v-7.329l-4.823-6.444h-23.123l0.021 9.392zM252.288 781.25c0 0 10.256 1.748 11.14 1.748s0-10.235 0-10.235l-23.123-1.453-4.401 5.265 16.384 4.675zM960.128 578.009h-37.464l-22.828 16.995-24.028-2.338v-14.657h-7.602l-8.213 5.854-41.613 10.551v26.956l-52.732-4.107-16.342-8.782h-20.933l-10.256 1.032-25.418-14.11v-26.556l-51.953-37.485 4.317-16.005h10.53l-2.759-15.247-7.413-2.717-0.4-39.844 44.898-51.132h19.543l1.179 3.117h35.127l10.129 9.371h19.922l10.93-10.951 29.693-3.075-3.938-39.486 32.958-58.186-17.353-33.168 1.179-15.626 13.667-13.625v-37.569l17.942-24.134v-31.21h15.5c-86.258-105.906-217.541-173.738-364.428-173.738-259.069-0.021-469.85 210.781-469.85 469.871 0 65.22 13.394 127.387 37.506 183.888v14.657l16.805 20.406c5.833 11.014 12.088 21.754 18.764 32.22l0.758-8.529-19.501-23.692c-6.044-11.414-11.688-23.081-16.805-35.063v-26.745l19.522-9.392v-37.169l18.722-31.947 15.226-2.338 1.958 10.951-17.963 27.714-3.517 26.935h10.53l4.443-27.714 25.966-37.885-6.697-12.235 16.51-25.25 41.002-10.15v6.634l16.405-2.338-1.558-11.709 12.888-2.359 19.901-5.433 28.114-32.031 35.906-2.717 3.517-29.293-24.576-17.184-1.158-26.155-3.517-16.005 35.548-44.498 2.717-15.247c0 0 12.888-3.496 14.468-3.496 1.558 0 28.893-20.701 28.893-20.701v-80.425l9.75-2.738-6.634-37.106 16.405-21.88-3.033-36.769 21.67-38.096 27.819-24.302 27.967-0.505 2.738 8.992-20.554 17.311 1.179 8.592 3.685 10.53 0.779 10.74-13.899 0.421-7.013 8.803 11.54 11.098 1.558 8.382-12.888 3.685 0.758 7.792 18.364 2.78 27.924 13.415 9.371 17.184 29.293 37.485-6.655 29.314 8.992 15.605 26.935-0.821 18.132 14.362 5.854 56.565 20.111 25.545 3.517 16.405-18.342 5.875-12.109 19.859-41.381 0.421-32.81 12.509-1.558 23.397-10.951 19.143-29.672 0.442-17.142 26.914-15.226 7.434-0.779-8.213-27.714-1.643-10.15 14.131-28.914 5.875-23.818-27.524-37.485 6.36-2.717 42.245-27.356 4.675 10.972 20.722-3.138 11.898-35.948-24.028-22.618 2.759-8.066 17.669 4.928 18.216 12.467 22.976 28.704 14.531 55.428 0.021-0.147-16.91 19.922-9.266-1.579 28.893 14.362 14.447 28.977 19.037 1.98 13.394 28.893 30.072 30.725 17.016-2.717 2.232 20.806 19.585 7.623-2.022 3.496-4.38 7.897 8.761 1.937 0.863-8.655 1.221-8.782 2.927v8.424l4.654 3.812h10.256l4.696-2.064 4.064-8.213 4.97 0.758v0.716l1.432-0.484 14.404 2.211 2.043 7.034 8.213-2.064v-7.623l-7.623-5.244h0.021l1.116-8.36 26.092-8.045c0 0 0.021-0.105 0.063-0.316l6.002 0.505 0.4 11.309-20.68 9.413-1.179 5.433 17.163 5.854 0.758 16.426-17.942 10.93-1.179 27.693-24.597-12.088h-8.971l2.359 21.080-33.484 7.897-13.857-10.466v-31.926l-24.913-7.897-9.982-20.806-10.824-1.748v26.619l-23.418 3.243-11.709 7.623-4.717 17.247 41.887 24.513 20.491 6.234 2.064-13.773 11.414 0.59 0.884 6.928 11.941 1.706 0.211 2.422-5.138 2.127-1.179 7.329 14.678 1.242 8.866 9.224 0.484 0.674 0.105-0.042 2.696 2.78 30.852 3.896 13.646-11.583-35.779-19.059 45.53-10.74 5.897 15.226h19.901l7.034 13.267-14.067 3.517v16.784l-44.119 19.543-30.451-3.517-17.184-8.992 1.179-21.859-17.963 2.738-2.759 12.088 17.205 15.626-31.231 1.558-8.971-2.717-3.896-10.53 11.709-1.98-2.338-11.709-19.901-1.179-3.117-7.792-28.872-0.8c0 0-0.8 16.384-1.958 16.384s22.639 0.4 22.639 0.4l17.205 16.805-9.392 4.696-12.488-12.13-20.722 1.179-12.488 17.184h-26.556l-27.714-20.701h25.397l2.317-7.434-6.592-6.128 28.114-0.779 4.296-10.15-31.652 1.179-1.537 7.813-19.901 4.296-10.551 5.854-23.692-0.19c77.561 56.502 172.938 89.944 276.022 89.944 118.816 0 227.375-44.414 310.201-117.384l-5.581-9.982-21.67-8.487-9.14-9.919 2.106-11.561 11.182-1.558 6.739-16.847 19.29 7.771 3.18-22.533h-5.812l-15.836 2.338-17.563-2.948-16.995-24.007-24.302-3.812-3.517-20.806 10.256-2.422-2.969-13.373-24.134 4.844-22.133-4.844-4.696-12.32 3.833-25.861 12.993-6.086 21.796 0.126 14.72 1.327 4.486 11.709 22.997 29.883 15.142-3.096 14.91 13.478 2.78-10.53 36.685-24.744-4.486-6.023-16.531 0.884 6.36-9.013 10.172-2.232 11.919 4.97-0.253 14.362 5.286 2.653-4.254 4.507-24.471 13.646-6.444 18.132h20.343l6.507-6.444 17.521-15.099 0.737-18.258 18.153-19.332 6.76 26.492 12.572 6.865 2.359-21.67 12.277-13.478 24.492 0.421c4.738-12.193 8.992-24.597 12.72-37.254l-2.548-2.359zM279.265 727.381l12.299 5.854 11.119-2.653-3.833-14.931-12.004-3.812-7.581 15.542zM344.527 692.233v-9.666h-28.093l-10.53 2.927 2.632 6.739 13.499 5.581h18.448v-5.581h4.043zM357.458 678.755v-9.371l-7.034-4.528-8.761-1.622c0 0 0 14.046 0 15.521h15.794zM349.539 682.567v11.14l9.666-8.803-9.666-2.338zM353.941 660.034v-9.119l-6.718-6.739h-14.931l2.338 10.235 7.055 0.611 1.453 3.517 10.803 1.495zM316.75 678.755h15.521l-19.901-27.819-8.213 4.401 1.769 11.709 10.824 11.709zM380.307 663.235v-9.098h-14.931l-4.085 5.897v8.466h1.179l17.837-5.265zM366.513 675.744l4.254 4.465 7.181-4.465-5.749-4.738-5.686 4.738zM967.751 554.296l1.474 1.727c0.611-2.653 1.264-5.307 1.853-8.002l-3.327 6.276zM79.646 646.556v-14.657c5.117 11.962 10.761 23.628 16.805 35.063l-16.805-20.406z" />
<glyph unicode="&#xe908;" glyph-name="edit46" d="M806.569 581.692c-13.951 0-25.262-11.311-25.262-25.262v-461.311c0-48.749-39.67-88.417-88.419-88.417h-553.944c-48.749 0-88.419 39.67-88.419 88.417v553.948c0 48.749 39.67 88.417 88.419 88.417h553.944c13.951 0 25.262 11.311 25.262 25.262s-11.311 25.262-25.262 25.262h-553.944c-76.615 0-138.945-62.327-138.945-138.941v-553.948c0-76.611 62.329-138.941 138.945-138.941h553.944c76.613 0 138.943 62.329 138.943 138.941v461.309c0 13.951-11.311 25.264-25.262 25.264zM1001.117 916.984c-30.455 30.455-80.004 30.443-110.435 0l-432.716-432.728c-0.579-0.579-7.105-7.363-8.795-11.164l-59.923-134.625c-4.256-9.557-2.185-20.745 5.216-28.138 4.835-4.833 11.299-7.399 17.874-7.399 3.465 0 6.956 0.716 10.262 2.187l134.627 59.923c3.786 1.686 10.581 8.214 11.164 8.793l432.726 432.714c14.754 14.754 22.883 34.365 22.883 55.225 0 20.857-8.129 40.473-22.883 55.212zM965.395 842.283l-432.728-432.728c-0.072-0.074-0.114-0.161-0.184-0.221l-70.322-31.305 31.305 70.32c0.062 0.074 0.147 0.114 0.221 0.186l432.718 432.726c10.423 10.425 28.591 10.413 38.992-0.010 5.21-5.193 8.079-12.114 8.079-19.477s-2.874-14.282-8.081-19.49z" />
<glyph unicode="&#xe909;" glyph-name="group12" d="M895.653 411.174c-10.127 2.485-16.012 9.318-17.813 20.775 35.999 20.982 56.318 64.7 56.318 122.604 0 75.155-53.118 136.299-118.408 136.299-65.287 0-118.404-61.143-118.404-136.299 0-57.906 20.319-101.625 56.314-122.606-1.797-11.454-7.684-18.288-17.809-20.775-53.365-13.088-85.408-29.679-104.709-54.598-23.119 5.22-38.785 15.849-41.062 44.228 50.721 26.735 79.475 86.685 79.475 167.19 0 100.699-70.679 182.623-157.556 182.623s-157.556-81.924-157.556-182.623c0-80.503 28.756-140.453 79.475-167.19-2.28-28.379-21.030-40.924-41.067-44.228-19.293 24.919-51.319 41.505-104.703 54.598-10.127 2.487-16.014 9.318-17.811 20.775 35.997 20.979 56.314 64.698 56.314 122.606 0 75.155-53.116 136.299-118.404 136.299s-118.408-61.143-118.408-136.299c0-57.904 20.319-101.623 56.316-122.604-1.799-11.456-7.686-18.29-17.809-20.775-95.959-23.533-128.345-59.682-128.345-143.256 0-11.54 9.356-20.898 20.898-20.898h218.511c-9.178-26.482-10.873-54.784-10.873-80.739 0-11.54 9.358-20.898 20.898-20.898h525.134c11.54 0 20.898 9.358 20.898 20.898 0 25.955-1.697 54.257-10.873 80.739h218.509c11.54 0 20.898 9.358 20.898 20.898 0 83.575-32.388 119.722-128.347 143.256zM42.477 288.816c3.254 41.1 20.34 63.254 95.826 81.765 25.675 6.301 52.32 29.37 50.109 75.224-0.397 8.269-5.64 15.523-13.366 18.497-39.179 15.086-43.411 68.14-43.411 90.252 0 52.109 34.367 94.503 76.612 94.503 42.243 0 76.608-42.394 76.608-94.503 0-22.112-4.228-75.172-43.405-90.252-7.724-2.972-12.965-10.225-13.366-18.493-2.219-45.856 24.428-68.928 50.109-75.228 32.227-7.904 54.646-16.835 69.394-27.886-38.833-14.173-65.682-31.234-84.19-53.026-0.238-0.282-0.464-0.568-0.7-0.853h-220.219zM270.838 187.179c1.486 27.926 6.531 49.894 18.633 67.904 0.468 0.602 0.903 1.231 1.302 1.881 19.314 27.18 55.503 45.232 121.204 61.34 15.887 3.893 67.436 22.388 63.845 96.875-0.397 8.269-5.64 15.523-13.366 18.499-42.078 16.196-66.213 65.154-66.213 134.315 0 77.651 51.929 140.827 115.76 140.827s115.76-63.175 115.76-140.827c0-69.166-24.133-118.122-66.213-134.315-7.726-2.974-12.969-10.227-13.368-18.499-3.59-74.487 47.959-92.981 63.845-96.875 110.080-26.988 137.32-59.421 141.139-131.124h-482.327zM761.302 288.816c-0.236 0.284-0.462 0.571-0.7 0.853-18.509 21.792-45.355 38.851-84.183 53.024 14.754 11.053 37.177 19.987 69.39 27.888 25.677 6.301 52.324 29.37 50.107 75.228-0.399 8.267-5.64 15.519-13.364 18.493-39.177 15.082-43.407 68.138-43.407 90.252 0 52.109 34.365 94.503 76.608 94.503 42.245 0 76.612-42.394 76.612-94.503 0-22.11-4.23-75.166-43.411-90.252-7.724-2.974-12.967-10.227-13.366-18.497-2.213-45.856 24.434-68.926 50.111-75.224 75.486-18.511 92.574-40.665 95.826-81.765h-220.221z" />
<glyph unicode="&#xe90a;" glyph-name="identification11" d="M667.017 638.666c-8.831 0-15.999 7.166-15.999 16.001s7.166 16.001 15.999 16.001h299.634c15.7 0 30.001-6.467 40.401-16.834l0.067-0.067c10.366-10.401 16.866-24.767 16.866-40.433v-620.001c0-15.731-6.465-30.134-16.834-40.5l-1.068-0.965c-10.3-9.798-24.201-15.865-39.432-15.865h-909.268c-15.767 0-30.133 6.465-40.5 16.834-10.401 10.399-16.868 24.765-16.868 40.532v619.998c0 15.666 6.467 30.034 16.834 40.435l0.033 0.033-0.033 0.033c10.367 10.367 24.767 16.834 40.5 16.834h299.668c8.833 0 16.001-7.166 16.001-16.001s-7.166-16.001-16.001-16.001h-299.668c-6.934 0-13.3-2.866-17.866-7.466h-0.033c-4.566-4.566-7.432-10.933-7.432-17.866v-620.001c0-6.9 2.9-13.267 7.466-17.866 4.601-4.6 10.934-7.469 17.866-7.469h909.302c6.666 0 12.767 2.634 17.299 6.867l0.567 0.599c4.6 4.6 7.468 10.931 7.468 17.866v620.003c0 6.934-2.898 13.334-7.498 17.933-4.601 4.533-10.934 7.399-17.833 7.399l-299.638-0.032zM491.348 101.365c-8.833 0-16.001 7.166-16.001 15.999 0 8.835 7.166 16.001 16.001 16.001h248.001c8.833 0 15.999-7.166 15.999-16.001 0-8.833-7.165-15.999-15.999-15.999h-248.001zM491.348 184.031c-8.833 0-16.001 7.166-16.001 15.999 0 8.835 7.166 16.001 16.001 16.001h392.668c8.833 0 15.999-7.166 15.999-16.001 0-8.833-7.165-15.999-15.999-15.999h-392.668zM491.348 266.699c-8.833 0-16.001 7.166-16.001 16.001s7.166 15.999 16.001 15.999h392.668c8.833 0 15.999-7.165 15.999-15.999s-7.165-16.001-15.999-16.001h-392.668zM491.348 349.365c-8.833 0-16.001 7.166-16.001 16.001 0 8.833 7.166 15.999 16.001 15.999h392.668c8.833 0 15.999-7.166 15.999-15.999 0-8.835-7.165-16.001-15.999-16.001h-392.668zM270.216 381.365c27.133 0 51.799-11.033 69.701-28.898l0.033-0.035 0.033-0.033 0.033-0.035c17.833-17.9 28.866-42.533 28.866-69.667 0-27.166-11.067-51.866-28.9-69.699l-0.067-0.067c-17.833-17.833-42.533-28.898-69.701-28.898s-51.868 11.067-69.701 28.898l-0.067 0.067c-17.833 17.833-28.9 42.533-28.9 69.699s11.067 51.868 28.9 69.701l0.067 0.065c17.866 17.836 42.533 28.903 69.701 28.903v0zM317.35 329.899c-12 12.032-28.7 19.466-47.133 19.466-18.4 0-35.067-7.466-47.133-19.466l-0.067-0.067c-12-12.067-19.433-28.734-19.433-47.134s7.432-35.067 19.433-47.133l0.067-0.067c12.065-12 28.732-19.433 47.133-19.433s35.067 7.432 47.133 19.433l0.067 0.067c12 12.065 19.433 28.732 19.433 47.133 0 18.434-7.432 35.134-19.433 47.134l-0.067 0.067zM187.55 101.365c-8.833 0-16.001 7.166-16.001 15.999 0 8.835 7.166 16.001 16.001 16.001h165.334c8.833 0 16.001-7.166 16.001-16.001 0-8.833-7.166-15.999-16.001-15.999h-165.334zM667.017 556c-8.831 0-15.999 7.166-15.999 16.001s7.166 16.001 15.999 16.001h82.666c8.833 0 16.001-7.166 16.001-16.001v-82.666c0-8.833-7.166-16.001-16.001-16.001h-475.334c-8.833 0-16.001 7.166-16.001 16.001v82.7c0 8.833 7.166 16.001 16.001 16.001h82.633c8.833 0 16.001-7.166 16.001-16.001s-7.166-16.001-16.001-16.001h-66.666v-50.666h443.366v50.666l-66.666-0.033zM439.683 960h144.634c8.833 0 16.001-7.166 16.001-16.001v-371.967c0-8.833-7.166-16.001-16.001-16.001h-144.634c-8.833 0-16.001 7.166-16.001 16.001v371.967c0 8.835 7.2 16.001 16.001 16.001v0zM568.318 928h-112.633v-339.969h112.633v339.969zM538.883 861.366c0-14.838-12.029-26.867-26.867-26.867s-26.867 12.029-26.867 26.867c0 14.838 12.029 26.867 26.867 26.867s26.867-12.029 26.867-26.867z" />
<glyph unicode="&#xe90b;" glyph-name="microphone122" d="M830.888 640.771h-94.54v97.048c0 122.509-99.667 222.18-222.178 222.18s-222.182-99.671-222.182-222.182v-97.048h-98.877c-16.288 0-29.541-13.253-29.541-29.541v-14.511c0-16.288 13.253-29.541 29.541-29.541h28.504v-196.645c0-139.423 98.048-256.362 228.81-285.538v-83.694h-119.591c-16.288 0-29.541-13.253-29.541-29.541v-6.219c0-16.288 13.253-29.541 29.541-29.541h366.67c16.288 0 29.541 13.253 29.541 29.541v6.219c0 16.288-13.253 29.541-29.541 29.541h-119.588v83.694c130.762 29.172 228.806 146.111 228.806 285.538v196.645h24.167c16.288 0 29.541 13.253 29.541 29.541v14.511c0 16.29-13.251 29.543-29.541 29.543zM514.169 942.379c112.793 0 204.557-91.764 204.557-204.562v-72.187h-90.002c-4.867 0-8.81-3.943-8.81-8.81s3.943-8.81 8.81-8.81h90.002v-61.154h-90.002c-4.867 0-8.81-3.943-8.81-8.81s3.943-8.81 8.81-8.81h90.002v-61.154h-90.002c-4.867 0-8.81-3.943-8.81-8.81s3.943-8.81 8.81-8.81h90.002v-103.295c0-6.053-0.28-12.042-0.798-17.961h-407.523c-0.518 5.918-0.798 11.907-0.798 17.961v103.295h90.805c4.867 0 8.81 3.943 8.81 8.81s-3.943 8.81-8.81 8.81h-90.805v61.154h90.805c4.867 0 8.81 3.943 8.81 8.81s-3.943 8.81-8.81 8.81h-90.805v61.154h90.805c4.867 0 8.81 3.943 8.81 8.81s-3.943 8.81-8.81 8.81h-90.805v61.507h325.056c4.867 0 8.81 3.943 8.81 8.81s-3.943 8.81-8.81 8.81h-269.783c3.64 79.208 69.204 142.529 149.291 142.529 4.867 0 8.81 3.943 8.81 8.81s-3.943 8.81-8.81 8.81c-89.803 0-163.255-71.223-166.911-160.149h-37.522c3.678 109.594 93.962 197.621 204.431 197.621zM715.626 351.585c-16.893-95.894-100.797-168.976-201.456-168.976s-184.567 73.082-201.456 168.976h402.912zM181.19 596.72v14.511c0 6.571 5.348 11.92 11.92 11.92h98.877v-38.351h-98.877c-6.571 0-11.92 5.344-11.92 11.92zM709.423-28.24v-6.219c0-6.576-5.344-11.92-11.92-11.92h-366.67c-6.571 0-11.92 5.344-11.92 11.92v6.219c0 6.571 5.348 11.92 11.92 11.92h366.67c6.576 0 11.92-5.348 11.92-11.92zM560.294 1.3h-92.249v80.33c15.029-2.392 30.436-3.649 46.129-3.649 15.689 0 31.091 1.254 46.121 3.649v-80.33zM789.1 370.532c0-151.598-123.332-274.93-274.926-274.93-151.602 0-274.939 123.332-274.939 274.93v196.645h52.752v-180.013c0-122.511 99.671-222.178 222.182-222.178s222.178 99.667 222.178 222.178v180.013h52.752v-196.645zM842.808 596.72c0-6.576-5.348-11.92-11.92-11.92h-94.54v38.351h94.54c6.571 0 11.92-5.348 11.92-11.92v-14.511z" />
<glyph unicode="&#xe90c;" glyph-name="news5" d="M1013.505 751.037h-100.952v73.106c0 5.797-4.697 10.495-10.495 10.495h-891.564c-5.797 0-10.495-4.697-10.495-10.495v-694.497c0-37.651 30.634-68.285 68.285-68.285h889.496c36.513 0 66.219 29.704 66.219 66.217v612.964c0 5.797-4.697 10.495-10.495 10.495zM1003.011 127.578c0-24.94-20.29-45.228-45.23-45.228s-45.228 20.288-45.228 45.228v29.064c0 5.797-4.697 10.495-10.495 10.495s-10.495-4.697-10.495-10.495v-29.064c0-17.476 6.817-33.381 17.916-45.228h-841.196c-26.079 0-47.295 21.218-47.295 47.297v684h870.576v-558.994c0-5.797 4.697-10.495 10.495-10.495s10.495 4.697 10.495 10.495v475.394h90.458v-602.469zM428.415 695.314h-334.337c-5.797 0-10.495-4.697-10.495-10.495v-250.741c0-5.797 4.697-10.495 10.495-10.495h334.337c5.797 0 10.495 4.697 10.495 10.495v250.741c0 5.795-4.697 10.495-10.495 10.495zM417.921 444.573h-313.348v229.751h313.348v-229.751zM473.643 684.819c0 5.797 4.697 10.495 10.495 10.495h334.337c5.797 0 10.495-4.697 10.495-10.495s-4.697-10.495-10.495-10.495h-334.337c-5.797 0-10.495 4.697-10.495 10.495zM473.643 601.215c0 5.797 4.697 10.495 10.495 10.495h334.337c5.797 0 10.495-4.697 10.495-10.495s-4.697-10.495-10.495-10.495h-334.337c-5.797 0-10.495 4.7-10.495 10.495zM473.643 517.612c0 5.797 4.697 10.495 10.495 10.495h334.337c5.797 0 10.495-4.697 10.495-10.495s-4.697-10.495-10.495-10.495h-334.337c-5.797 0-10.495 4.7-10.495 10.495zM484.138 423.517c-5.797 0-10.495 4.697-10.495 10.495s4.697 10.495 10.495 10.495h334.337c5.797 0 10.495-4.697 10.495-10.495s-4.697-10.495-10.495-10.495h-334.337zM438.91 350.409c0-5.797-4.697-10.495-10.495-10.495h-334.337c-5.797 0-10.495 4.697-10.495 10.495s4.697 10.495 10.495 10.495h334.337c5.797 0 10.495-4.697 10.495-10.495zM438.91 266.872c0-5.797-4.697-10.495-10.495-10.495h-334.337c-5.797 0-10.495 4.697-10.495 10.495s4.697 10.495 10.495 10.495h334.337c5.797 0 10.495-4.697 10.495-10.495zM438.91 183.336c0-5.797-4.697-10.495-10.495-10.495h-334.337c-5.797 0-10.495 4.697-10.495 10.495s4.697 10.495 10.495 10.495h334.337c5.797 0 10.495-4.7 10.495-10.495zM832.951 350.409c0-5.797-4.697-10.495-10.495-10.495h-334.337c-5.797 0-10.495 4.697-10.495 10.495s4.697 10.495 10.495 10.495h334.337c5.795 0 10.495-4.697 10.495-10.495zM832.951 266.872c0-5.797-4.697-10.495-10.495-10.495h-334.337c-5.797 0-10.495 4.697-10.495 10.495s4.697 10.495 10.495 10.495h334.337c5.795 0 10.495-4.697 10.495-10.495zM832.951 183.336c0-5.797-4.697-10.495-10.495-10.495h-334.337c-5.797 0-10.495 4.697-10.495 10.495s4.697 10.495 10.495 10.495h334.337c5.795 0 10.495-4.7 10.495-10.495z" />
<glyph unicode="&#xe90d;" glyph-name="notepad23" d="M194.031 815.464h-69.156c-6.817 0-12.349-5.532-12.349-12.349v-854.766c0-6.817 5.532-12.349 12.349-12.349h774.249c6.817 0 12.349 5.532 12.349 12.349v854.766c0 6.817-5.532 12.349-12.349 12.349h-69.156c-6.817 0-12.349-5.532-12.349-12.349v-113.534h-611.239v113.534c0 6.817-5.532 12.349-12.349 12.349zM829.969 664.883c6.817 0 12.349 5.532 12.349 12.349v113.534h44.457v-830.067h-749.55v830.067h44.457v-113.534c0-6.817 5.532-12.349 12.349-12.349 0 0 635.937 0 635.937 0zM642.082 960h-260.144c-6.817 0-12.349-5.532-12.349-12.349v-76.447h-117.723c-6.817 0-12.349-5.532-12.349-12.349v-90.811c0-6.817 5.532-12.349 12.349-12.349h194.051c6.817 0 12.349 5.532 12.349 12.349v78.462h107.448v-78.462c0-6.817 5.532-12.349 12.349-12.349h194.091c6.817 0 12.349 5.532 12.349 12.349v90.811c0 6.817-5.532 12.349-12.349 12.349h-117.723v76.447c0 6.817-5.552 12.349-12.349 12.349zM759.785 846.505v-66.113h-169.392v78.462c0 6.817-5.532 12.349-12.349 12.349h-132.127c-6.817 0-12.349-5.532-12.349-12.349v-78.462h-169.353v66.113h117.723c6.817 0 12.349 5.532 12.349 12.349v76.447h235.446v-76.447c0-6.817 5.532-12.349 12.349-12.349h117.703zM181.682 377.767v-58.782c0-6.817 5.532-12.349 12.349-12.349h635.937c6.817 0 12.349 5.532 12.349 12.349v58.782c0 6.817-5.532 12.349-12.349 12.349h-635.937c-6.817 0-12.349-5.532-12.349-12.349zM206.381 365.418h611.239v-34.084h-611.239v34.084zM829.969 267.829h-635.937c-6.817 0-12.349-5.532-12.349-12.349v-58.861c0-6.817 5.532-12.349 12.349-12.349h635.937c6.817 0 12.349 5.532 12.349 12.349v58.861c0 6.797-5.552 12.349-12.349 12.349zM817.619 208.968h-611.239v34.163h611.239v-34.163zM829.969 145.483h-635.937c-6.817 0-12.349-5.532-12.349-12.349v-58.861c0-6.817 5.532-12.349 12.349-12.349h635.937c6.817 0 12.349 5.532 12.349 12.349v58.861c0 6.817-5.552 12.349-12.349 12.349zM817.619 86.641h-611.239v34.163h611.239v-34.163zM512.010 441.569c53.052 0 96.245 43.213 96.245 96.285 0 53.033-43.173 96.206-96.245 96.206s-96.245-43.173-96.245-96.206c0-53.092 43.173-96.285 96.245-96.285zM512.010 612.403c41.138 0 74.609-33.432 74.609-74.55 0-41.158-33.471-74.629-74.609-74.629s-74.629 33.471-74.629 74.629c0 41.118 33.471 74.55 74.629 74.55z" />
<glyph unicode="&#xe90e;" glyph-name="photo26" d="M56.397 390.347h573.881v506.299h-573.881v-506.299zM76.863 876.217h532.928v-438.826c-26.871 67.674-58.558 133.59-106.869 133.59-4.28 0-8.745-0.552-13.103-1.681-42.743-10.942-71.882-68.427-88.821-114.712l-6.549-18.012-5.703 18.326c-19.487 62.487-54.866 149.168-112.902 207.262-12.587 12.587-26.226 18.992-40.468 18.992-76.935 0-137.834-196.464-157.785-269.491h25.654c24.473 87.383 81.607 244.745 132.152 244.745 7.456 0 15.15-3.986 22.993-11.772 67.726-67.767 103.548-182 116.852-232.967h37.849c8.323 28.789 38.478 122.277 82.84 133.647 2.382 0.608 4.708 0.923 7.034 0.923 34.585 0 64.74-68.685 90.389-134.57h16.48v-0.851h-532.969v465.398zM457.431 674.452c37.813 0 68.577 30.821 68.577 68.685 0 37.833-30.764 68.597-68.577 68.597-37.849 0-68.633-30.764-68.633-68.597-0.015-37.864 30.764-68.685 68.633-68.685zM457.431 802.324c32.625 0 59.182-26.536 59.182-59.182 0-32.667-26.556-59.223-59.182-59.223-32.682 0-59.223 26.577-59.223 59.223-0.015 32.625 26.541 59.182 59.223 59.182zM885.573 636.402l23.493 95.097-220.437 54.536v172.141h-688.629v-688.609h85.408l-10.169-41.134 87.439-21.627-15.006-43.165 650.574-225.81 225.753 650.538-138.427 48.033zM688.629 701.601l124.216-30.764-105.358-425.966c-4.466 32.352-9.983 64.482-18.863 91.219v365.511zM685.267 223.853l-188.27 45.692h181.479c2.511-14.969 4.801-30.32 6.791-45.692zM20.487 289.991v647.753h647.733v-647.733l-647.733-0.021zM100.042 243.355l6.461 26.185h305.365l304.168-75.218 121.596 491.48-149.003 36.854v42.299l195.69-48.404-155.109-626.952-4.981 1.774-0.572-2.253-623.616 154.237zM865.772 556.512l56.897-19.765-143.872-414.544c-0.959 21.26-2.434 42.443-5.038 62.265l92.013 372.044zM785.624-36.134l-611.874 212.336 8.874 25.633 561.052-138.798 4.945 19.822 34.069-11.829 165.999 478.341-77.987 27.072 9.926 39.989 117.352-40.731-212.356-611.833z" />
<glyph unicode="&#xe90f;" glyph-name="reading51" d="M910.381 960h-684.285c-79.999-0.022-145.076-65.112-145.076-145.102v-733.801c0-79.99 65.081-145.080 145.084-145.097h684.281c18.008 0 32.599 14.596 32.599 32.599v958.801c-0.004 18.003-14.596 32.599-32.604 32.599zM391.839 894.801v-165.552l-10.471 10.475c-6.111 6.116-14.405 9.549-23.054 9.549s-16.943-3.438-23.059-9.554l-10.458-10.462v165.544h67.042zM226.104 894.801h33.499v-244.251c0-18.003 14.618-32.599 32.625-32.599 8.65 0 16.943 3.434 23.059 9.554l43.035 43.057 43.048-43.061c6.111-6.116 14.405-9.549 23.054-9.549h0.017c18.008 0 32.599 14.596 32.599 32.599v244.251h420.744v-668.603h-651.69c-29.496-0.009-56.953-8.884-79.877-24.071v612.771c0 44.044 35.842 79.89 79.886 79.903zM226.113 1.199c-44.057 0.009-79.894 35.851-79.894 79.899s35.842 79.894 79.886 79.907h651.681v-47.308h-651.681c-18.008 0-32.599-14.596-32.599-32.599s14.591-32.599 32.599-32.599h651.681v-47.299h-651.673z" />
<glyph unicode="&#xe910;" glyph-name="rss56" d="M122.871 145.988c2.554 14.396 9.569 26.678 20.508 36.247 9.569 10.939 21.778 18.261 36.918 21.194 27.262 5.281 49.215-3.413 67.009-21.194 18.467-18.482 25.891-39.632 19.823-65.638-3.501-15.024-9.569-27.349-19.823-37.604-10.253-10.253-22.668-16.54-37.603-19.836-25.422-5.601-46.821 1.049-66.323 19.836-18.118 17.461-25.469 39.005-20.51 66.996zM88.68 468.023c3.603-19.676 23.791-33.562 43.758-29.392 104.482 21.808 209.722-10.428 285.803-85.475 75.032-74.011 106.494-179.774 85.462-283.731-2.904-14.338 0.685-26.678 9.569-35.562 6.842-4.782 13.681-8.181 19.823-9.569 21.194-4.769 40.389 8.315 44.444 29.392 12.368 64.398 9.57 127.862-8.882 190.074-18.467 62.225-51.286 116.922-97.086 162.739-46.487 46.487-101.316 78.897-164.095 97.772-62.342 18.728-125.676 21.209-189.387 8.882-21.079-4.085-33.317-23.761-29.409-45.13zM48.35 160.354c-10.677-49.141 5.98-99.303 41.7-134.688 35.387-35.052 84.688-50.164 134.69-40.344 58.040 11.391 104.364 58.3 116.238 116.236 10.692 52.162-2.055 97.086-40.344 135.375-34.861 34.861-85.432 49.74-134.69 41.018-28.006-4.959-53.998-17.766-77.264-41.018-20.523-20.523-33.927-47.084-40.329-76.578zM44.251 689.559c4.083-21.092 23.075-33.402 43.073-29.407 89.415 17.881 177.734 12.894 263.91-12.995 86.803-26.068 161.353-70.423 224.949-134.006 64.268-64.268 109.296-139.502 135.375-226.305 25.891-86.191 30.078-173.679 11.626-262.552-1.371-14.368 2.744-25.979 11.626-34.876 8.196-6.157 14.353-9.57 19.137-10.255 19.822-4.784 39.675 8.415 43.758 29.407 19.866 102.132 16.321 201.67-12.997 300.156-29.494 99.097-80.676 184.603-153.84 257.753-73.165 73.165-159.326 123.661-257.769 153.156-97.8 29.304-197.484 33.622-299.47 14.353-21.077-3.983-33.505-23.105-29.377-44.429zM0.491 898.086c2.932-19.896 25.147-33.547 45.13-29.392 124.977 25.934 247.515 19.137 367.837-17.095 120.336-36.247 224.774-99.303 313.823-188.716 88.713-89.050 151.699-193.517 188.018-314.511 36.144-120.365 42.284-242.014 17.781-365.793-2.844-14.323 0.685-25.979 10.255-35.547 7.526-5.469 13.681-8.882 19.137-9.569 21.194-4.784 41.001 8.33 45.13 29.392 26.648 136.191 21.194 270.764-19.137 403.397-40.344 132.65-109.223 248.361-207.855 347.329-97.599 97.945-213.415 166.513-345.96 206.495-132.733 40.024-267.204 45.787-403.397 19.139-21.062-4.129-33.986-23.311-30.763-45.13z" />
<glyph unicode="&#xe911;" glyph-name="search74" d="M1014.294-8.29l-264.38 260.155c69.233 75.219 111.771 174.698 111.771 284.164-0.033 234.168-192.91 423.971-430.854 423.971s-430.821-189.803-430.821-423.971 192.877-423.971 430.821-423.971c102.808 0 197.102 35.56 271.168 94.678l265.406-261.181c12.932-12.74 33.927-12.74 46.859 0 12.962 12.738 12.962 33.415 0.030 46.155zM430.831 177.289c-201.326 0-364.533 160.613-364.533 358.74s163.207 358.74 364.533 358.74c201.328 0 364.533-160.613 364.533-358.74s-163.205-358.74-364.533-358.74z" />
<glyph unicode="&#xe912;" glyph-name="musical-instrument179" d="M983.753 190.6c-92.046 79.601-177.227 191.91-177.227 472.311 0 162.388-132.115 294.499-294.508 294.499-162.415 0-294.548-132.111-294.548-294.499 0-280.655-85.149-392.852-177.276-472.387-25.542-22.246-40.194-54.283-40.194-87.901 0-18.502 15-33.502 33.502-33.502h317.937c15.509-74.433 81.603-130.534 160.561-130.534s145.056 56.096 160.561 130.534h317.937c18.502 0 33.502 15 33.502 33.502 0 33.891-14.687 65.977-40.247 87.977zM512 5.591c-41.722 0-77.372 26.485-91.041 63.529h182.083c-13.669-37.045-49.32-63.529-91.041-63.529zM80.2 136.125c1.219 1.322 2.519 2.582 3.891 3.775 140.455 121.26 200.379 277.676 200.379 523.011 0 125.442 102.079 227.494 227.543 227.494 125.446 0 227.503-102.052 227.503-227.494 0-245.112 59.933-401.523 200.46-523.042 1.371-1.184 2.671-2.43 3.895-3.743h-863.671z" />
<glyph unicode="&#xe913;" glyph-name="chart35" d="M117.029 53.029v906.971h-117.029v-1024h1024v117.029zM246.521 211.687c40.331 0 73.143 32.812 73.143 73.143 0 2.528-0.132 5.050-0.392 7.548l130.15 142.743c11.018-0.588 22.063 1.372 32.133 5.597l157.892-88.275c8.701-30.802 36.803-52.979 70.311-52.979 40.331 0 73.143 32.812 73.143 73.143 0 2.657-0.146 5.307-0.436 7.946l158.635 204.768c38.429 2.136 69.035 34.076 69.035 73.029 0 40.331-32.812 73.143-73.143 73.143s-73.143-32.812-73.143-73.143c0-3.195 0.208-6.372 0.623-9.514l-157.362-203.132c-7.809-0.281-15.421-1.791-22.63-4.465l-161.938 90.533c-9.822 29.131-37.218 49.532-69.263 49.532-40.331 0-73.143-32.812-73.143-73.143 0-0.459 0.006-0.919 0.015-1.381l-135.706-148.831c-39.377-1.106-71.066-33.479-71.066-73.119 0-40.334 32.812-73.143 73.143-73.143z" />
<glyph unicode="&#xe914;" glyph-name="energy27" d="M755.211 466.7c42.426 65.332 82.525 127.121 82.525 195.151 0 164.363-146.112 298.149-325.71 298.149s-325.763-133.733-325.763-298.149c0-72.739 43.167-135.479 88.82-201.975 57.080-83.054 121.725-177.006 121.725-314.548v-19.415c-0.106-1.111-0.423-2.169-0.423-3.333v-142.356c0-24.493 23.805-44.225 53.112-44.225h135.849c29.36 0 53.112 19.732 53.112 44.225v142.356c0 2.91-0.37 5.66-1.005 8.464v15.394c-0.053 138.864 62.529 235.197 117.757 320.261zM584.342 170.668c-17.034-0.265-40.998-0.265-65.227-0.423 5.766 42.797 4.973 112.414 9.099 145.794 4.602 38.247 7.512 76.653 8.147 115.165 1.164 65.861-3.809 132.675-19.15 196.473l-1.587 6.877c25.816-67.184 39.252-143.52 44.278-233.187 1.217-22.007-3.65-45.389-3.65-68.136 37.031 11.162 119.503 109.24 105.537 197.002-15.659 97.496-184.359 172.933-174.731 254.453s-102.416-198.589-86.81-296.086c11.162-70.464 44.754-110.721 113.049-146.165-1.111-5.449 8.358-88.715-24.229-172.298-14.495 0-28.143-0.106-39.305-0.106-7.247 138.388-74.537 236.413-129.184 315.976-43.22 62.952-80.674 117.334-80.674 175.895 0 137.383 122.042 249.057 272.122 249.057s272.069-111.674 272.069-249.057c0-54.488-34.756-108.076-75.013-170.129-52.848-81.414-117.916-181.714-124.74-321.108z" />
<glyph unicode="&#xe915;" glyph-name="group58" d="M521.718 699.891l-14.731-13.452-19.428 18.297c-4.033 0.68-7.984 1.541-11.845 2.648-8.025-3.64-17.592-8.599-27.478-14.436 0.721 4.255 0.689 8.558-0.156 12.747 4.394 2.558 8.722 4.919 12.96 7.148-22.674 10.37-41.037 28.437-51.841 50.882-5.976-3.64-11.837-7.353-17.428-11.141-8.181 4.689-16.059 9.157-22.265 12.665-10.452-22.642-28.577-40.955-51.063-51.669 18.404-9.567 63.171-34.372 75.606-43.152 2.722-1.902 5.656-3.222 8.665-4.263v-181.33c0-15.575 2.5-30.405 7.173-43.939-0.131-1.435-0.221-2.894-0.221-4.369v-40.717h0.271c-0.016-0.59-0.172-1.148-0.172-1.738l0.016-358.111c0-24.421 19.789-44.21 44.201-44.21s44.193 19.781 44.193 44.21l-0.008 358.111c0 0.598-0.156 1.148-0.172 1.738h6.64c-0.016-0.59-0.172-1.139-0.172-1.73l-0.025-358.119c0-24.421 19.789-44.21 44.193-44.21h0.008c24.404 0 44.193 19.781 44.193 44.193l0.025 358.119c0 0.598-0.156 1.156-0.172 1.738h0.508l0.041 46.267c0 0 7.812 10.485 7.812 48.456 0 20.387 2.074 96.444 2.074 96.444l0.205 83.156c-0.467 0.23-63.261 34.643-63.261 34.643l-18.346-4.878zM293.030 702.055l-19.428-14.895-14.731 13.46c-32.184-14.674-70.876-32.946-71.401-33.2-5.624-2.656-11.624-4-17.805-4-6.845 0-13.452 1.795-19.338 4.886l-0.139-0.139c-37.225 29.872-68.269 81.574-79.148 103.839-9.017 18.576-31.397 26.314-49.972 17.297-18.584-9.026-26.322-31.405-17.297-49.972 6.591-13.583 67.064-133.473 158.295-162.033 5.255-1.648 10.534-2.861 15.813-3.845 0.598-22.986 1.697-67.351 1.697-82.23 0-37.963 7.82-48.439 7.82-48.439l0.033-46.284h0.68c-0.016-0.598-0.172-1.172-0.172-1.779l0.008-358.127c0-24.412 19.789-44.201 44.201-44.201s44.193 19.797 44.193 44.218l-0.008 358.111c0 0.607-0.156 1.18-0.18 1.779h6.656c-0.025-0.598-0.18-1.172-0.18-1.779l-0.025-358.111c-0.008-24.421 19.781-44.21 44.193-44.218 24.412 0 44.201 19.789 44.201 44.201v358.127c0 0.607-0.156 1.172-0.172 1.779h0.107v40.717c0 1.484-0.090 2.935-0.213 4.378 4.673 13.534 7.173 28.372 7.173 43.939v184.741c-15.887-1.279-63.744 33.454-69.622 36.127-3.877-1.123-11.222-3.681-15.239-4.345zM168.46 675.298c4.976 0 10.042 1.074 14.829 3.353 0.492 0.23 31.503 14.879 61.105 28.478-26.454 7.345-48.735 24.626-62.654 47.595-15.379-7.181-26.937-12.641-28.159-13.223-17.362-8.206-24.781-28.921-16.592-46.284 5.943-12.559 18.445-19.92 31.47-19.92zM603.333 807.935c0-53.201-43.128-96.33-96.33-96.33s-96.33 43.128-96.33 96.33c0 53.201 43.128 96.33 96.33 96.33s96.33-43.128 96.33-96.33zM371.014 807.935c0-53.201-43.128-96.33-96.33-96.33s-96.33 43.128-96.33 96.33c0 53.201 43.128 96.33 96.33 96.33s96.33-43.128 96.33-96.33zM767.703 707.597c29.905-13.731 61.629-28.716 62.129-28.946 4.804-2.271 9.862-3.336 14.854-3.336 13.010 0 25.486 7.345 31.43 19.912 8.206 17.354 0.795 38.086-16.567 46.284-1.303 0.615-13.87 6.558-30.38 14.256-13.559-22.978-35.405-40.439-61.465-48.169zM835.653 807.935c0-53.201-43.128-96.33-96.33-96.33s-96.33 43.128-96.33 96.33c0 53.201 43.128 96.33 96.33 96.33s96.33-43.128 96.33-96.33zM1002.973 796.844c-18.543 9.050-40.93 1.328-49.997-17.215-11.977-24.519-48.333-84.632-90.493-112.094-5.861-3.066-12.419-4.837-19.24-4.837-6.189 0-12.19 1.353-17.813 4-0.516 0.254-39.201 18.527-71.393 33.192l-14.731-13.452-19.428 18.297c-4.025 0.68-7.993 1.541-11.837 2.648-8.025-3.64-17.592-8.599-27.486-14.436 0.73 4.255 0.689 8.558-0.156 12.747 4.394 2.558 8.706 4.919 12.96 7.148-22.683 10.37-41.045 28.437-51.841 50.882-5.976-3.64-11.837-7.353-17.428-11.141-8.181 4.689-16.059 9.157-22.265 12.665-10.452-22.642-28.585-40.955-51.063-51.669 18.395-9.567 63.171-34.372 75.606-43.152 2.722-1.902 5.648-3.222 8.657-4.263v-181.33c0-15.575 2.508-30.405 7.181-43.939-0.131-1.435-0.221-2.894-0.221-4.369v-40.717h0.271c-0.016-0.59-0.172-1.148-0.172-1.738l0.016-358.111c0-24.421 19.789-44.21 44.201-44.21 24.421 0 44.193 19.781 44.193 44.21l-0.033 358.086c0 0.598-0.156 1.156-0.172 1.738h6.648c-0.016-0.582-0.172-1.139-0.172-1.73l-0.025-358.127c0-24.412 19.789-44.201 44.193-44.201h0.008c24.412 0 44.201 19.781 44.201 44.185l0.025 358.127c0 0.598-0.164 1.148-0.172 1.738h0.508l0.033 46.275c0 0 7.812 10.468 7.812 48.448 0 16.485 1.344 69.327 1.869 88.968 4.451 0.443 8.911 1.131 13.362 2.041l0.344-0.148c0.041 0.082 0.098 0.156 0.156 0.238 4.287 0.894 8.599 1.926 12.878 3.271 91.223 28.56 151.696 148.442 158.295 162.033 9.001 18.559 1.254 40.898-17.28 49.94z" />
<glyph unicode="&#xe916;" glyph-name="heart8" d="M585.408 293.706l-63.553-165.509c-3.399-8.856-11.875-14.714-21.331-14.794-0.080 0-0.14 0-0.22 0-9.396 0-17.852 5.698-21.391 14.474l-172.866 428.736-61.913-127.365c-3.838-7.937-11.915-12.954-20.751-12.954h-148.736c1.699-2.899 3.019-5.718 4.778-8.636l40.143-57.895c9.976-12.914 20.791-25.649 32.606-38.463 134.302-144.878 226.783-252.152 284.058-321.042 41.242-49.759 106.194-50.378 147.577-0.74 54.736 66.052 141.959 168.128 266.645 304.229l-265.046-0.040zM755.935 943.387c-69.45-0.14-132.843-26.888-180.382-70.43-47.56-43.901-85.503-43.901-133.323-0.24-47.7 43.421-110.972 69.95-180.542 69.69-107.294-0.1-199.634-63.373-242.076-154.494-27.248-58.655-23.13-166.408-5.738-228.722 8.316-29.807 20.651-63.753 37.664-99.317 3.059 1.499 6.397 2.519 10.056 2.519h147.417l78.326 161.111c3.998 8.196 13.454 13.514 21.531 12.934 9.136-0.32 17.193-5.957 20.631-14.414l170.367-422.578 48.199 125.566c3.439 8.896 11.995 14.774 21.551 14.774h298.032c6.217 0 11.835-2.519 15.973-6.497 7.057 9.616 15.453 21.311 23.81 33.026 21.631 30.027 66.411 99.637 87.322 160.811 29.247 85.883 29.247 149.176 29.247 149.176-0.3 147.856-120.388 267.445-268.065 267.085z" />
<glyph unicode="&#xe917;" glyph-name="like" d="M1009.79 439.709c-8.291 53.895-47.676 99.498-107.789 118.154-31.093 10.364-87.061 22.802-130.591 33.166 80.842 116.081 95.352 234.235 66.332 302.64-18.656 41.457-51.822 66.332-95.352 66.332-93.279 0-107.789-84.988-128.518-143.028-14.51-43.53-87.061-122.3-194.85-182.413-80.842-45.603-157.538-105.717-161.684-107.789-10.364-8.291-16.583-20.729-16.583-35.239v-435.304c0-14.51 6.219-26.947 18.656-35.239 64.259-45.603 294.348-84.988 408.356-84.988 60.113 0 82.915 10.364 95.352 16.583 51.822 29.020 120.227 192.777 169.976 331.66 58.040 43.53 84.988 99.498 76.696 155.466zM868.835 350.575c-8.291-6.219-12.437-14.51-16.583-22.802-45.603-124.372-109.862-271.547-134.737-296.421-4.146-2.073-16.583-6.219-49.749-6.219-107.789 0-273.619 33.166-335.806 58.040v385.555c26.947 20.729 78.769 58.040 130.591 87.061 116.081 66.332 213.506 157.538 238.381 232.162 2.073 8.291 4.146 18.656 6.219 26.947 18.656 55.968 22.802 55.968 35.239 55.968 4.146 0 8.291 0 14.51-12.437 18.656-43.53 2.073-155.466-97.425-263.255-24.874-26.947-8.291-68.405 22.802-74.623 2.073 0 136.81-31.093 192.777-47.676 26.947-8.291 43.53-26.947 45.603-45.603 4.146-24.874-16.583-51.822-51.822-76.696zM85.288 570.3c-41.457 0-72.551-31.093-72.551-72.551v-445.668c0-41.457 31.093-72.551 72.551-72.551s74.623 31.093 74.623 72.551v445.668c0 41.457-33.166 72.551-74.623 72.551z" />
<glyph unicode="&#xe918;" glyph-name="share55" d="M803.315 657.944c2.886 0 5.77-0.576 8.656-0.576v0c79.639 0 146.004 62.903 150.621 142.541 4.617 83.102-58.864 154.66-141.965 159.854-83.678 4.617-154.66-59.44-159.278-141.965-1.155-20.199 1.731-39.243 7.502-57.132l-358.952-214.1c-26.546 22.507-60.595 36.357-98.107 36.357-83.102 0-150.621-67.52-150.621-150.621s67.52-150.621 150.621-150.621c35.202 0 68.096 12.119 93.489 32.894l350.295-190.441c-9.233-35.78-4.617-73.29 12.695-106.185 25.969-50.207 77.331-81.947 133.885-81.947v0c24.238 0 47.899 6.349 69.251 17.889 73.869 38.088 102.722 130.423 64.634 203.715-25.969 50.207-77.331 81.37-133.885 81.37-24.238 0-47.899-5.77-69.251-17.313-17.313-9.233-32.894-21.352-45.013-35.78l-338.755 184.092c8.656 19.044 13.85 40.396 13.85 62.903 0 20.775-4.039 40.396-11.543 58.287l354.913 210.64c24.818-25.393 58.866-42.129 96.956-43.86zM730.599 813.183c2.308 43.282 38.088 76.753 81.37 76.753 1.731 0 3.463 0 4.617 0 45.013-2.886 79.063-40.974 76.753-85.988-2.308-44.437-40.974-79.063-85.988-76.753-45.011 2.886-79.637 41.551-76.753 85.988zM130.423 432.301c0 45.013 36.357 81.37 81.37 81.37s81.37-36.357 81.37-81.37-36.357-81.37-81.37-81.37-81.37 36.357-81.37 81.37zM764.648 159.914c11.543 6.349 24.238 9.233 37.512 9.233 30.587 0 58.287-16.736 72.714-43.858 20.775-39.819 5.194-89.45-34.626-109.647-11.543-6.349-24.238-9.233-37.512-9.233v0c-30.587 0-58.287 16.736-72.714 43.858-9.811 19.044-12.119 41.551-5.194 62.326 5.77 20.197 20.199 37.51 39.819 47.321z" />
<glyph unicode="&#xe919;" glyph-name="mother24" d="M374.098 746.010c5.276-0.785 10.614-1.173 15.949-1.173 37.027 0 72.135 19.625 91.593 51.121 19.734 31.942 21.19 73.082 3.756 106.343-17.090 32.603-50.566 54.694-87.295 57.412-37.121 2.749-73.717-14.314-95.454-44.534-21.918-30.471-26.271-71.354-11.249-105.763 14.676-33.608 46.41-58.012 82.699-63.405zM661.504 489.563c12.837-12.257 30.154-19.193 47.899-19.193 18.483 0 36.464 7.534 49.43 20.701 12.993 13.194 20.239 31.321 19.935 49.833-0.302 18.452-8.122 36.283-21.468 49.025-13.408 12.804-31.681 19.758-50.209 19.152-18.413-0.604-36.092-8.701-48.606-22.218-12.617-13.63-19.282-32.036-18.365-50.581 0.861-17.638 8.613-34.526 21.384-46.72zM839.743 264.162c0.006-0.228 0.010-0.224-0.004 0.314-0.051 1.956-0.047 1.732-0.037 1.077-1.49 50.363-10.79 102.034-40.156 144.109-13.476 19.304-31.784 35.747-52.96 46.342-32.519 16.268-51.99 14.363-86.077-9.395-10.421-7.265-19.666-16.066-30.087-23.344-11.943-8.348-24.55-16.344-38.21-21.591 0.286 24.88-0.657 49.629-3.049 74.405-2.593 26.125-7.559 51.778-14.269 77.142-6.737 25.462-16.87 50.55-29.748 73.519-12.395 22.111-27.716 42.872-46.163 60.321-15.236 14.408-32.258 27.099-51.341 35.901-36.022 16.613-79.681 17.983-114.45 0.485-44.614-22.454-79.841-60.438-103.405-103.789-24.94-45.878-37.524-97.903-42.687-149.578-2.677-26.758-3.106-53.475-2.848-80.343 0.216-16.905 14.139-31.143 31.050-31.632 16.747-0.485 31.36 12.623 32.741 29.308 1.672 20.492 3.858 40.787 7.033 61.104 4.004 25.639 10.879 50.987 19.91 75.29 2.375 6.392 4.97 12.75 7.863 18.928l1.576-77.859-51.224-273.148c-0.988-5.064 0.318-10.252 3.593-14.232 3.281-3.982 8.115-6.268 13.276-6.268h41.588l9.667-199.76c0.984-19.025 16.814-34.744 35.874-35.445 18.768-0.686 35.57 13.307 38.237 31.907 0.164 1.132 0.273 2.268 0.333 3.411l10.353 199.884h8.177l9.667-199.76c0.986-19.023 16.814-34.744 35.876-35.445 18.77-0.686 35.568 13.307 38.239 31.907 0.16 1.132 0.273 2.268 0.331 3.411l10.351 199.884h40.318c5.145 0 9.977 2.274 13.256 6.246 3.277 3.973 4.596 9.147 3.597 14.302l-49.929 272.482 1.222 77.049c19.261-45.83 26.764-98.217 30.841-147.442 0.092-1.083 0.181-2.174 0.269-3.258 1.114-12.933 9.96-23.672 21.92-27.58 12.689-9.741 29.267-11.407 44.692-9.36 15.707 2.085 30.853 7.476 45.327 13.749l0.119-62.267-38.003-197.422c-0.773-3.957 0.247-8.009 2.804-11.121 2.564-3.115 6.349-4.9 10.38-4.9h31.062l5.818-120.264c0.649-12.563 11.316-22.814 23.909-22.873 12.66-0.058 23.442 10.149 24.098 22.791l6.229 120.346h6.135l5.816-120.264c0.651-12.561 11.318-22.814 23.911-22.873 12.66-0.058 23.442 10.149 24.098 22.791l6.227 120.346h29.008c4.021 0 7.801 1.779 10.361 4.884s3.593 7.148 2.813 11.177l-36.867 194.801 0.323 34.261c12.703-30.185 17.501-62.69 20.063-95.119 0.935-10.868 10.577-19.276 21.458-18.791 10.782 0.479 19.555 9.584 19.666 20.365 0.076 6.981 0.168 13.934 0.037 20.886z" />
<glyph unicode="&#xe91a;" glyph-name="plants6" d="M523.449 953.869c-2.552 3.827-6.847 6.114-11.485 6.131-4.566 0-8.902-2.304-11.485-6.131-25.178-37.423-83.079-129.855-83.079-188.938 0-75.502 42.379-136.718 94.562-136.718 52.25 0 94.562 61.216 94.562 136.718 0.004 59.086-57.854 151.496-83.075 188.938zM769.862 476.047c41.768 41.776 66.18 148.051 74.813 192.329 0.906 4.532-0.538 9.186-3.758 12.456-3.293 3.262-7.932 4.687-12.464 3.798-44.295-8.649-150.538-33.079-192.346-74.87-53.391-53.374-66.719-126.614-29.784-163.53 36.91-36.925 110.142-23.574 163.539 29.817zM904.245 366.176c-3.22 3.237-7.859 4.662-12.358 3.806-51.582-9.822-190.097-40.382-243.552-93.838-66.254-66.22-82.81-157.082-36.975-202.909 45.802-45.802 136.672-29.248 202.892 37.006 53.456 53.447 84.016 191.995 93.821 243.544 0.874 4.501-0.57 9.146-3.829 12.391zM195.507 684.629c-4.499 0.889-9.171-0.538-12.422-3.798-3.262-3.268-4.703-7.923-3.798-12.456 8.633-44.278 33.079-150.553 74.853-192.329 53.391-53.391 126.597-66.742 163.53-29.817 36.941 36.916 23.574 110.156-29.817 163.53-41.776 41.793-148.020 66.222-192.346 74.87zM132.106 369.983c-4.499 0.856-9.129-0.57-12.391-3.806-3.253-3.245-4.662-7.89-3.789-12.391 9.806-51.548 40.357-190.097 93.821-243.544 66.22-66.254 157.082-82.81 202.886-37.006 45.81 45.827 29.287 136.689-36.998 202.909-53.433 53.456-191.981 84.016-243.529 93.838zM511.966 591.175c-18.968 0-34.383-15.398-34.383-34.389v-586.403c0-18.993 15.415-34.383 34.383-34.383 19.008 0 34.389 15.39 34.389 34.383v586.401c0 18.993-15.381 34.391-34.389 34.391z" />
<glyph unicode="&#xe91b;" glyph-name="skyscraper7" d="M993.508 19.14h-30.492v807.022c0 61.571-45.594 111.679-101.638 111.679h-279.504c-56.042 0-101.638-50.108-101.638-111.679v-148.207c-8.172 1.911-16.587 3.253-25.41 3.253h-279.501c-56.042 0-101.638-41.082-101.638-91.615v-570.451h-43.195c-16.833-0.003-30.492-13.664-30.492-30.494s13.659-30.492 30.492-30.492h963.017c16.83 0 30.492 13.659 30.492 30.492s-13.659 30.492-30.492 30.492zM154.997 589.591c0 2.988 7.135 10.306 20.329 10.306h279.504c13.191 0 20.329-7.297 20.329-10.306v-570.451h-320.161v570.451zM561.549 826.162c0 17.908 10.713 30.369 20.329 30.369h279.504c9.615 0 20.329-12.461 20.329-30.369v-807.025h-320.161v807.025zM672.232 822.159h-50.27c-16.242 0-29.434-13.171-29.434-29.434v-50.27c0-16.242 13.171-29.434 29.434-29.434h50.27c16.242 0 29.434 13.171 29.434 29.434v50.27c0 16.262-13.191 29.434-29.434 29.434zM672.232 679.866h-50.27c-16.242 0-29.434-13.171-29.434-29.434v-50.27c0-16.242 13.171-29.434 29.434-29.434h50.27c16.242 0 29.434 13.171 29.434 29.434v50.27c0 16.262-13.191 29.434-29.434 29.434zM672.232 537.573h-50.27c-16.242 0-29.434-13.171-29.434-29.434v-50.27c0-16.242 13.171-29.434 29.434-29.434h50.27c16.242 0 29.434 13.171 29.434 29.434v50.27c0 16.262-13.191 29.434-29.434 29.434zM821.294 822.159h-50.27c-16.242 0-29.434-13.171-29.434-29.434v-50.27c0-16.242 13.171-29.434 29.434-29.434h50.27c16.242 0 29.434 13.171 29.434 29.434v50.27c0 16.262-13.171 29.434-29.434 29.434zM821.294 679.866h-50.27c-16.242 0-29.434-13.171-29.434-29.434v-50.27c0-16.242 13.171-29.434 29.434-29.434h50.27c16.242 0 29.434 13.171 29.434 29.434v50.27c0 16.262-13.171 29.434-29.434 29.434zM821.294 537.573h-50.27c-16.242 0-29.434-13.171-29.434-29.434v-50.27c0-16.242 13.171-29.434 29.434-29.434h50.27c16.242 0 29.434 13.171 29.434 29.434v50.27c0 16.262-13.171 29.434-29.434 29.434zM672.232 395.28h-50.27c-16.242 0-29.434-13.171-29.434-29.434v-50.27c0-16.242 13.171-29.434 29.434-29.434h50.27c16.242 0 29.434 13.171 29.434 29.434v50.27c0 16.262-13.191 29.434-29.434 29.434zM672.232 252.988h-50.27c-16.242 0-29.434-13.171-29.434-29.434v-50.27c0-16.242 13.171-29.434 29.434-29.434h50.27c16.242 0 29.434 13.171 29.434 29.434v50.27c0 16.262-13.191 29.434-29.434 29.434zM821.294 395.28h-50.27c-16.242 0-29.434-13.171-29.434-29.434v-50.27c0-16.242 13.171-29.434 29.434-29.434h50.27c16.242 0 29.434 13.171 29.434 29.434v50.27c0 16.262-13.171 29.434-29.434 29.434zM821.294 252.988h-50.27c-16.242 0-29.434-13.171-29.434-29.434v-50.27c0-16.242 13.171-29.434 29.434-29.434h50.27c16.242 0 29.434 13.171 29.434 29.434v50.27c0 16.262-13.171 29.434-29.434 29.434zM265.68 537.573h-50.268c-16.242 0-29.434-13.171-29.434-29.434v-50.27c0-16.242 13.171-29.434 29.434-29.434h50.27c16.242 0 29.434 13.171 29.434 29.434v50.27c0 16.262-13.194 29.434-29.436 29.434zM414.742 537.573h-50.27c-16.242 0-29.434-13.171-29.434-29.434v-50.27c0-16.242 13.171-29.434 29.434-29.434h50.27c16.242 0 29.434 13.171 29.434 29.434v50.27c0 16.262-13.171 29.434-29.434 29.434zM265.68 395.28h-50.268c-16.242 0-29.434-13.171-29.434-29.434v-50.27c0-16.242 13.171-29.434 29.434-29.434h50.27c16.242 0 29.434 13.171 29.434 29.434v50.27c0 16.262-13.194 29.434-29.436 29.434zM265.68 252.988h-50.268c-16.242 0-29.434-13.171-29.434-29.434v-50.27c0-16.242 13.171-29.434 29.434-29.434h50.27c16.242 0 29.434 13.171 29.434 29.434v50.27c0 16.262-13.194 29.434-29.436 29.434zM414.742 395.28h-50.27c-16.242 0-29.434-13.171-29.434-29.434v-50.27c0-16.242 13.171-29.434 29.434-29.434h50.27c16.242 0 29.434 13.171 29.434 29.434v50.27c0 16.262-13.171 29.434-29.434 29.434zM414.742 252.988h-50.27c-16.242 0-29.434-13.171-29.434-29.434v-50.27c0-16.242 13.171-29.434 29.434-29.434h50.27c16.242 0 29.434 13.171 29.434 29.434v50.27c0 16.262-13.171 29.434-29.434 29.434z" />
<glyph unicode="&#xe91c;" glyph-name="symbol134" d="M576 384v448h448v-454.4c0-307.2-288-345.6-288-345.6l-38.4 89.6c0 0 128 19.2 153.6 121.6 25.6 76.8-25.6 140.8-25.6 140.8h-249.6zM0 384v448h448v-454.4c0-307.2-288-345.6-288-345.6l-38.4 89.6c0 0 128 19.2 153.6 121.6 25.6 76.8-25.6 140.8-25.6 140.8h-249.6z" />
<glyph unicode="&#xe91d;" glyph-name="symbol135" d="M448 512v-448h-448v454.4c0 307.2 288 345.6 288 345.6l38.4-89.6c0 0-128-19.2-153.6-121.6-25.6-76.8 25.6-140.8 25.6-140.8h249.6zM1024 512v-448h-448v454.4c0 307.2 288 345.6 288 345.6l38.4-89.6c0 0-128-19.2-153.6-121.6-25.6-76.8 25.6-140.8 25.6-140.8h249.6z" />
<glyph unicode="&#xe91e;" glyph-name="weapon59" d="M941.113 696.337c-0.526 27.647-1.027 53.764-1.027 79.031 0 19.795-16.043 35.843-35.843 35.843-153.287 0-269.995 44.053-367.277 138.639-13.916 13.534-36.062 13.529-49.974 0-97.272-94.586-213.961-138.639-367.239-138.639-19.795 0-35.843-16.048-35.843-35.843 0-25.271-0.497-51.398-1.027-79.050-4.913-257.283-11.642-609.645 417.356-758.344 3.804-1.319 7.771-1.979 11.737-1.979s7.938 0.66 11.737 1.979c429.031 148.704 422.312 501.075 417.399 758.363zM511.981 9.874c-367.922 133.655-362.359 426.441-357.423 685.077 0.296 15.522 0.583 30.567 0.784 45.315 143.562 6.060 258.363 49.563 356.639 135.174 98.285-85.611 213.106-129.119 356.677-135.174 0.201-14.743 0.487-29.778 0.784-45.291 4.932-258.645 10.49-551.441-357.461-685.101zM635.409 572.508l-172.996-172.986-73.821 73.821c-13.998 13.993-36.693 13.993-50.686 0-13.998-14.003-13.998-36.693 0-50.691l99.165-99.165c6.996-6.996 16.172-10.495 25.343-10.495s18.347 3.498 25.343 10.495l198.334 198.329c14.003 13.998 14.003 36.693 0.005 50.686-13.993 13.998-36.689 14.003-50.686 0.005z" />
<glyph unicode="&#xe91f;" glyph-name="facebook51" d="M1024 448c0 282.765-229.237 512-512 512-282.765 0-512-229.235-512-512 0-282.763 229.235-512 512-512 282.763 0 512 229.237 512 512zM46.545 448c0 257.071 208.384 465.455 465.455 465.455s465.455-208.384 465.455-465.455-208.384-465.455-465.455-465.455-465.455 208.384-465.455 465.455zM531.642 152.484v295.516h97.513l15.407 97.931h-112.919v49.105c0 25.553 8.378 49.943 45.056 49.943h73.308v97.745h-104.075c-87.505 0-111.383-57.622-111.383-137.495v-59.253h-60.043v-97.976h60.043v-295.516h97.094z" />
<glyph unicode="&#xe920;" glyph-name="twitter44" d="M731.556 549.794c0 5.167-0.094 10.287-0.326 15.36 22.11 16.478 41.286 37.097 56.461 60.695-20.294-9.124-42.078-15.221-64.979-17.779 23.366 14.383 41.286 37.376 49.758 64.977-21.877-13.265-46.080-22.761-71.821-27.695-20.619 23.46-50.035 38.4-82.573 38.959-62.464 1.024-113.105-51.759-113.105-117.899 0-9.402 0.977-18.526 2.931-27.322-94.067 6.050-177.43 55.017-233.193 128.837-9.728-17.687-15.313-38.353-15.313-60.51 0-41.892 19.968-79.127 50.315-101.097-18.571 0.837-35.979 6.469-51.245 15.686 0-0.512 0-1.024 0-1.536 0-58.555 39.006-107.614 90.763-119.063-9.495-2.699-19.503-4.096-29.79-4.051-7.307 0.047-14.383 0.838-21.271 2.329 14.383-47.989 56.181-83.038 105.658-84.201-38.726-32.115-87.505-51.292-140.474-51.153-9.124 0-18.153 0.604-26.997 1.722 50.084-34.351 109.521-54.364 173.427-54.364 208.014-0.049 321.774 181.014 321.774 338.104zM1024 448c0 282.765-229.237 512-512 512-282.765 0-512-229.235-512-512 0-282.763 229.235-512 512-512 282.763 0 512 229.237 512 512zM46.545 448c0 257.071 208.384 465.455 465.455 465.455s465.455-208.384 465.455-465.455-208.384-465.455-465.455-465.455-465.455 208.384-465.455 465.455z" />
<glyph unicode="&#xe921;" glyph-name="a10" d="M462.050 329.009l11.277-38.090h85.19l-97.233 267.093h-80.471l-98.306-267.093h82.616l12.043 38.090h84.884zM420.895 468.562h0.735l23.902-82.371h-50.44l25.802 82.371zM639.418 479.717v-65.793h-65.854v-57.243h65.854v-65.762h57.151v65.762h65.885v57.243h-65.885v65.793zM511.939 82.815c184.201 0 333.958 118.715 333.958 302.793 0 184.109-149.849 333.866-333.958 333.866-56.324 0-142.77-27.304-156.039-38.949-13.33-11.767-9.132-38.581 15.598-27.028 24.822 11.553 89.818 34.812 140.441 34.812 166.949 0 302.824-135.814 302.824-302.701 0-166.857-135.876-271.537-302.824-271.537-166.887 0-302.671 104.68-302.671 271.537 0 52.983 27.825 135.416 37.692 145.957 9.867 10.664-15.107 37.57-25.067 18.754-9.837-18.754-43.79-104.802-43.79-164.712 0-184.079 149.757-302.793 333.836-302.793zM754.547 960l-7.477-0.674-0.674 0.674h-663.749v-1024h858.676v837.133l-186.775 186.867zM128.613-18.034v932.068h586.833v-182.945h179.911v-749.123h-766.744z" />
<glyph unicode="&#xe922;" glyph-name="arrow487" d="M782.857 397.307l-440.304-440.29c-28.009-28.022-73.42-28.022-101.415 0-27.997 27.997-27.997 73.406 0 101.401l389.601 389.589-389.589 389.576c-27.997 28.009-27.997 73.413 0 101.41 27.997 28.009 73.406 28.009 101.415 0l440.304-440.297c13.999-14.005 20.99-32.342 20.99-50.687 0-18.354-7.005-36.704-21.001-50.703z" />
<glyph unicode="&#xe923;" glyph-name="at4" d="M885.612 812.73c-98.103 97.72-223.804 147.27-373.611 147.27-145.337 0-268.773-50.753-366.883-150.857-95.966-98.096-144.631-217.944-144.631-356.216 0-138.536 46.707-259.088 138.8-358.29 97.303-105.265 222.701-158.637 372.713-158.637 7.012 0 14.021 0.056 21.021 0.16v100.841c-7.002-0.148-14.006-0.247-21.021-0.247-118.136 0-216.572 43.098-292.548 128.061-71.012 80.010-107.019 176.941-107.019 288.11 0 112.102 38.175 208.117 113.485 285.389 76.449 78.703 172.707 118.609 286.082 118.609 118.845 0 217.67-38.020 293.737-113.009 71.463-70.318 107.695-156.522 107.695-256.214 0-109.148-35.565-194.055-46.46-217.491l-133.266-0.063v448.176h-123.13v-55.541c-15.481 11.79-34.154 21.991-55.732 30.416-29.866 11.288-59.137 17.011-87.002 17.011-74.315 0-136.654-29.339-185.287-87.211-44.799-53.392-67.512-117.045-67.512-189.197 0-67.020 21.375-128.233 63.501-181.901 48.218-61.929 111.889-93.529 189.228-93.929l1.606-0.005c62.15 0 115.978 21.421 160.097 63.675l17.584-51.122h294.889l33.021 67.759c32.206 64.395 48.541 148.31 48.541 249.423 0.002 124.481-46.392 233.838-137.898 325.029zM565.458 321.005c-26.424-31.767-57.139-47.209-93.912-47.209-48.531 0-85.991 19.383-114.498 59.234-22.857 32.124-34.447 67.199-34.447 104.244 0 41.323 13.288 78.302 39.487 109.897 29.352 35.277 65.768 52.426 111.324 52.426 28.185 0 55.955-12.556 82.53-37.316 33.397-31.125 49.63-72.205 49.63-125.59 0-44.77-13.495-83.692-40.113-115.687z" />
<glyph unicode="&#xe924;" glyph-name="business133" d="M499.512 372.256h-24.911c-12.921 0-23.405 10.452-23.405 23.373 0 4.777 1.924 9.394 5.354 12.728 14.492 14.075 26.675 33.023 35.492 53.446 1.795-1.315 3.719-2.276 5.899-2.276 13.979 0 30.458 30.907 30.458 51.971s-1.956 38.153-15.966 38.153c-1.667 0-3.398-0.289-5.194-0.737-0.994 57.133-15.421 128.405-102.66 128.405-91.022 0-101.634-71.144-102.66-128.212-1.282 0.256-2.565 0.545-3.751 0.545-14.011 0-15.934-17.089-15.934-38.153s16.415-51.971 30.426-51.971c1.731 0 3.334 0.481 4.841 1.347 8.785-20.102 20.808-38.666 35.075-52.612 3.431-3.334 5.354-7.887 5.354-12.696 0-12.921-10.484-23.405-23.405-23.405h-24.944c-53.286 0-96.472-43.186-96.472-96.472v-26.739c0-16.8 13.626-30.458 30.458-30.458h321.958c16.8 0 30.426 13.658 30.426 30.458v26.739c0.032 53.35-43.154 96.568-96.44 96.568zM788.351 636.92h-269.987c7.791-17.249 13.369-38.473 15.678-64.731 5.771-3.559 10.099-9.298 13.626-16.223h240.683c12.504 0 22.571 10.099 22.571 22.571v35.812c0 12.44-10.067 22.571-22.571 22.571zM788.351 489.407h-235.168c-6.38-24.11-22.090-49.342-43.86-56.075-0.641-1.186-1.379-2.212-2.052-3.398v-21.481h281.048c12.472 0 22.571 10.099 22.571 22.603v35.78c0.032 12.472-10.035 22.571-22.539 22.571zM788.351 341.894h-183.582c12.119-19.173 19.237-41.776 19.237-66.11v-14.844h164.345c12.504 0 22.571 10.099 22.571 22.571v35.812c0 12.472-10.067 22.571-22.571 22.571zM885.368 861.989h-746.703c-76.594 0-138.664-62.070-138.664-138.664v-550.682c0-76.626 62.070-138.664 138.664-138.664h746.703c76.594 0 138.632 62.070 138.632 138.664v550.682c0 76.594-62.038 138.664-138.632 138.664zM958.563 172.643c0-40.365-32.831-73.196-73.196-73.196h-746.703c-40.365 0-73.196 32.831-73.196 73.196v550.682c0 40.365 32.831 73.196 73.196 73.196h746.703c40.365 0 73.196-32.831 73.196-73.196v-550.682z" />
<glyph unicode="&#xe925;" glyph-name="calentar" d="M269.16 90.737h20.839v74.636h129.169v-74.636h20.874v74.636h135.263v-74.636h20.909v74.636h143.914v-74.636h20.839v74.636h119.677v20.804h-119.677v135.228h119.677v20.874h-119.677v123.25h119.677v20.804h-119.677v83.252h-20.839v-83.252h-143.914v83.252h-20.909v-83.252h-135.263v83.252h-20.874v-83.252h-129.204v83.252h-20.804v-83.252h-137.925v-20.804h137.925v-123.25h-137.925v-20.874h137.925v-135.228h-137.925v-20.804h137.925v-74.636zM440.008 186.177v135.228h135.263v-135.228h-135.263zM740.13 186.177h-143.914v135.228h143.914v-135.228zM740.13 465.53v-123.25h-143.914v123.25c0-0.035 143.914-0.035 143.914 0zM575.306 465.53v-123.25h-135.263v123.25c0-0.035 135.263-0.035 135.263 0zM289.965 465.53h129.169v-123.25h-129.169v123.25zM289.965 321.405h129.169v-135.228h-129.169v135.228zM1022.949 872.3l-165.734-0.21v-85.739c0-22.871-18.703-41.574-41.609-41.574h-48.613c-22.976 0-41.609 18.668-41.609 41.574v85.599l-55.443-0.070v-85.529c0-22.871-18.738-41.574-41.714-41.574h-48.613c-22.941 0-41.609 18.668-41.609 41.574v85.494l-58.911-0.14v-85.389c0-22.871-18.703-41.574-41.644-41.574h-48.648c-22.871 0-41.609 18.668-41.609 41.574v85.249h-60.662v-85.249c0-22.871-18.668-41.574-41.609-41.574h-48.613c-22.976 0-41.644 18.668-41.644 41.574v85.074l-154.666-0.14v-915.986l1024 0.21-1.051 916.826zM950.905 28.148h-877.704v585.218h877.704v-585.218zM196.31 774.267h48.613c5.709 0 10.367 4.658 10.367 10.402v145.7c0 5.779-4.658 10.402-10.367 10.402h-48.613c-5.779 0-10.437-4.623-10.437-10.402v-145.7c0-5.744 4.658-10.402 10.437-10.402zM388.803 774.267h48.648c5.744 0 10.402 4.658 10.402 10.402v145.7c-0.035 5.779-4.693 10.402-10.437 10.402h-48.648c-5.709 0-10.367-4.623-10.367-10.402v-145.7c0.035-5.744 4.693-10.402 10.402-10.402zM579.614 774.267h48.613c5.814 0 10.472 4.658 10.472 10.402v145.7c-0.035 5.779-4.658 10.402-10.472 10.402h-48.613c-5.744 0-10.402-4.623-10.402-10.402v-145.7c0-5.744 4.658-10.402 10.402-10.402zM766.993 774.267h48.613c5.744 0 10.367 4.658 10.367 10.402v145.7c0 5.779-4.623 10.402-10.367 10.402h-48.613c-5.744 0-10.402-4.623-10.402-10.402v-145.7c0.035-5.744 4.658-10.402 10.402-10.402z" />
<glyph unicode="&#xe926;" glyph-name="map-pointer7" d="M840.313 631.689c-0.041 181.323-146.967 328.311-328.253 328.311-181.364 0-328.37-146.988-328.37-328.311 0-156.504 244.571-574.626 311.583-686.173 3.527-5.91 9.896-9.516 16.769-9.516 6.871 0 13.263 3.607 16.748 9.496 66.971 111.547 311.523 529.69 311.523 686.194zM512.041 377.662c-140.055 0-254.087 113.952-254.087 254.046 0 140.075 113.991 254.046 254.087 254.046s254.007-113.971 254.007-254.046-113.932-254.046-254.007-254.046z" />
<glyph unicode="&#xe927;" glyph-name="person1" d="M516.357 550.4c-28.323 0-55.013 5.265-80.068 15.796s-46.843 25.055-65.362 43.574c-18.519 18.519-33.044 40.306-43.574 65.362s-15.796 51.745-15.796 80.068 5.265 54.831 15.796 79.523c10.53 24.692 25.055 46.298 43.574 64.817s40.306 33.226 65.362 44.119c25.055 10.894 51.745 16.34 80.068 16.34s54.831-5.447 79.523-16.34 46.298-25.6 64.817-44.119 33.226-40.125 44.119-64.817 16.34-51.2 16.34-79.523-5.447-55.013-16.34-80.068-25.6-46.843-44.119-65.362-40.125-33.044-64.817-43.574-51.2-15.796-79.523-15.796zM681.94 507.915c37.765 0 70.627-7.444 98.587-22.332s50.837-34.315 68.63-58.281 31.047-51.378 39.762-82.247c8.715-30.865 13.074-62.27 13.074-94.23v-297.396c0-11.62-5.812-17.43-17.428-17.43h-107.85c-11.615 0-17.43 5.81-17.43 17.43v259.268c0 5.080-1.997 10.53-5.986 16.34-3.994 5.81-10.349 8.715-19.064 8.715s-15.075-2.91-19.064-8.715c-3.994-5.81-5.991-11.257-5.991-16.34v-259.268c0-5.084-1.817-9.26-5.452-12.528s-7.983-4.902-13.072-4.902h-360.579c-11.62 0-17.43 5.81-17.43 17.43v259.268c0 5.080-1.634 10.53-4.902 16.34s-9.986 8.715-20.153 8.715-16.885-2.91-20.153-8.715c-3.268-5.81-4.902-11.257-4.902-16.34v-259.268c0-5.084-1.816-9.26-5.447-12.528s-7.989-4.902-13.072-4.902h-103.489c-12.346 0-18.519 5.81-18.519 17.43v297.396c0 31.955 4.357 63.365 13.072 94.23 8.715 30.871 22.15 58.281 40.306 82.247s41.033 43.393 68.63 58.281 60.641 22.332 99.132 22.332h338.791z" />
<glyph unicode="&#xe928;" glyph-name="smartphone4" d="M686.375 960h-348.767c-61.157 0-110.915-49.366-110.915-110.045v-803.928c0-60.645 49.758-110.028 110.915-110.028h348.75c61.157 0 110.932 49.383 110.932 110.028v803.928c0.017 60.679-49.758 110.045-110.915 110.045zM760.637 46.028c0-40.441-33.309-73.357-74.262-73.357h-348.767c-40.936 0-74.245 32.916-74.245 73.357v803.928h0.017c0 40.458 33.309 73.357 74.245 73.357h348.75c40.936 0 74.262-32.899 74.262-73.357 0.017 0 0.017-803.928 0-803.928zM722.926 852.242h-421.818c-5.068 0-9.163-4.095-9.163-9.163v-712.466c0-5.051 4.095-9.18 9.163-9.18h421.818c5.068 0 9.18 4.112 9.18 9.18v712.466c-0.017 5.068-4.112 9.163-9.18 9.163zM713.763 139.793h-403.508v694.122h403.491c0 0 0-694.122 0.017-694.122zM512.017 106.16c-30.903 0-56.055-25.135-56.055-56.038s25.152-56.038 56.055-56.038 56.021 25.152 56.021 56.038c0 30.903-25.118 56.038-56.021 56.038zM512.017 12.429c-20.801 0-37.711 16.91-37.711 37.694s16.91 37.711 37.711 37.711c20.784 0 37.694-16.927 37.694-37.711s-16.91-37.694-37.694-37.694zM451.355 888.264c0 3.737 3.652 6.757 8.157 6.757h104.96c4.505 0 8.139-3.020 8.139-6.757s-3.618-6.757-8.122-6.757h-104.96c-4.488 0-8.157 3.020-8.174 6.757z" />
<glyph unicode="&#xe929;" glyph-name="last-track" d="M394.644 448l388.191 386.067c29 28.812 29 75.52 0 104.328-28.996 28.808-76.014 28.808-105.015 0l-436.913-434.528c-15.454-15.352-22.409-35.771-21.392-55.868-1.017-20.101 5.938-40.517 21.392-55.872l436.913-434.523c29-28.812 76.014-28.812 105.015 0 29 28.808 29 75.516 0 104.32l-388.191 386.076z" />
<glyph unicode="&#xe92a;" glyph-name="check-mark" d="M1003.932 799.196c-26.758 26.758-67.924 26.758-94.681 0l-559.855-559.855-234.645 232.587c-26.758 26.758-67.924 26.758-94.681 0s-26.758-67.924 0-94.681l281.986-279.928c12.35-12.35 30.874-20.583 47.341-20.583s34.991 8.233 47.341 20.583l607.196 605.138c26.758 26.758 26.758 69.982 0 96.74z" />
<glyph unicode="&#xe92b;" glyph-name="india1" d="M820.244 739.523h-76.567c-5.063 44.376-20.52 85.914-45.047 118.066h121.611c29.13 0 52.718 21.752 52.718 50.872 0 29.134-23.59 51.486-52.718 51.486h-412.373c-1.509 0-2.963 0.053-4.513 0.053-1.003 0-2.008-0.053-3.011-0.053h-196.588c-29.127 0-52.718-22.368-52.718-51.486s23.59-50.872 52.718-50.872h233.79c73.833-5.374 151.171-33.938 171.542-118.066h-405.332c-29.127 0-52.718-23.606-52.718-52.738 0-29.12 23.59-52.738 52.718-52.738h400.079c-24.891-66.484-93.262-107.034-188.285-107.034h-166.291c-28.397 0-51.419-23.022-51.419-51.419 0-28.404 23.022-51.426 51.419-51.426h60.412c0.25-0.027 0.474-0.149 0.724-0.149h95.408c103.658-3.939 149.763-48.889 176.197-171.867 20.682-91.348 35.91-150.846 47.886-186.483 8.974-32.97 26.732-82.644 57.538-112.314 12.047-11.585 27.584-17.35 43.068-17.35 16.297 0 32.592 6.375 44.788 19.056 22.349 23.229 22.755 59.175 2.274 83.201-0.094 0.284-0.053 0.595-0.202 0.879-18.91 35.081-41.783 129.177-69.692 248.528-22.184 97.047-63.629 157.493-126.431 184.333 78.857 30.272 133.104 88.174 154.365 162.059h84.648c29.13 0 52.718 23.618 52.718 52.738s-23.583 52.724-52.713 52.724z" />
<glyph unicode="&#xe92c;" glyph-name="edit462" d="M806.569 581.692c-13.951 0-25.262-11.311-25.262-25.262v-461.311c0-48.749-39.67-88.417-88.419-88.417h-553.944c-48.749 0-88.419 39.67-88.419 88.417v553.948c0 48.749 39.67 88.417 88.419 88.417h553.944c13.951 0 25.262 11.311 25.262 25.262s-11.311 25.262-25.262 25.262h-553.944c-76.615 0-138.945-62.327-138.945-138.941v-553.948c0-76.611 62.329-138.941 138.945-138.941h553.944c76.613 0 138.943 62.329 138.943 138.941v461.309c0 13.951-11.311 25.264-25.262 25.264zM1001.117 916.984c-30.455 30.455-80.004 30.443-110.435 0l-432.716-432.728c-0.579-0.579-7.105-7.363-8.795-11.164l-59.923-134.625c-4.256-9.557-2.185-20.745 5.216-28.138 4.835-4.833 11.299-7.399 17.874-7.399 3.465 0 6.956 0.716 10.262 2.187l134.627 59.923c3.786 1.686 10.581 8.214 11.164 8.793l432.726 432.714c14.754 14.754 22.883 34.365 22.883 55.225 0 20.857-8.129 40.473-22.883 55.212zM965.395 842.283l-432.728-432.728c-0.072-0.074-0.114-0.161-0.184-0.221l-70.322-31.305 31.305 70.32c0.062 0.074 0.147 0.114 0.221 0.186l432.718 432.726c10.423 10.425 28.591 10.413 38.992-0.010 5.21-5.193 8.079-12.114 8.079-19.477s-2.874-14.282-8.081-19.49z" />
<glyph unicode="&#xe92d;" glyph-name="speech117" d="M834.914 917.94h-645.826c-104.263 0-189.088-84.818-189.088-189.086v-393.202c0-104.27 84.825-189.091 189.088-189.091h445.835l161.141-161.118c4.819-4.828 11.268-7.383 17.831-7.383 3.242 0 6.526 0.62 9.638 1.915 9.425 3.894 15.567 13.102 15.567 23.29v143.345c102.337 2.241 184.901 86.18 184.901 189.042v393.2c0 104.27-84.823 189.088-189.086 189.088zM973.578 335.654c0-76.45-62.203-138.667-138.669-138.667h-21.029c-13.923 0-25.207-11.277-25.207-25.21v-107.648l-125.486 125.475c-4.724 4.724-11.139 7.383-17.822 7.383h-456.277c-76.459 0-138.667 62.217-138.667 138.667v393.198c0 76.471 62.208 138.667 138.667 138.667h645.823c76.461 0 138.669-62.194 138.669-138.667v-393.198zM275.634 587.133c-31.33 0-56.725-25.408-56.725-56.727 0-31.342 25.395-56.727 56.725-56.727 31.317 0 56.727 25.388 56.727 56.727 0 31.319-25.411 56.727-56.727 56.727zM511.997 587.133c-31.33 0-56.727-25.408-56.727-56.727 0-31.342 25.397-56.727 56.727-56.727 31.317 0 56.727 25.388 56.727 56.727-0.002 31.319-25.411 56.727-56.727 56.727zM748.361 587.133c-31.33 0-56.73-25.408-56.73-56.727 0-31.342 25.399-56.727 56.73-56.727 31.317 0 56.72 25.388 56.72 56.727 0 31.319-25.404 56.727-56.72 56.727z" />
<glyph unicode="&#xe92e;" glyph-name="padlock71" d="M861.155 610.756h-72.942v151.101c0 109.257-88.886 198.143-198.143 198.143h-156.136c-109.257 0-198.143-88.886-198.143-198.143v-151.101h-72.942c-20.522 0-37.156-16.634-37.156-37.156v-362.927c0-151.457 123.219-274.673 274.676-274.673h223.264c151.457 0 274.676 123.219 274.676 274.673v362.927c0.003 20.522-16.631 37.156-37.153 37.156zM310.105 761.857c0 68.281 55.55 123.831 123.831 123.831h156.139c68.281 0 123.828-55.55 123.828-123.831v-151.101h-403.798v151.101zM823.999 210.673c0-110.479-89.882-200.361-200.361-200.361h-223.267c-110.479 0-200.364 89.882-200.364 200.361v325.77h623.992v-325.77zM474.847 133.671c0-20.522 16.634-37.156 37.156-37.156 20.519 0 37.156 16.634 37.156 37.156v106.085c4.42 6.117 7.060 13.608 7.060 21.732 0 20.519-16.637 37.156-37.156 37.156h-14.119c-20.519 0-37.156-16.637-37.156-37.156 0-8.121 2.637-15.615 7.060-21.732v-106.085z" />
<glyph unicode="&#xe92f;" glyph-name="three-dots1" d="M512.034 686.023c-75.503 0-136.539 61.306-136.539 137.011 0 75.638 61.036 136.966 136.539 136.966 75.324 0 136.427-61.306 136.427-136.966 0-75.683-61.126-137.011-136.427-137.011zM512.056 311.023c-75.503 0-136.562 61.306-136.562 137.011 0 75.616 61.036 137.011 136.539 137.011 75.324 0 136.427-61.373 136.472-137.011-0.045-75.75-61.193-137.011-136.449-137.011zM512.056-64c-75.503 0-136.562 61.306-136.562 137.011s61.036 136.989 136.539 136.989c75.324 0.045 136.427-61.306 136.427-136.989s-61.148-137.011-136.405-137.011z" />
<glyph unicode="&#xe930;" glyph-name="play43" d="M955.316 703.958c-141.36 244.843-454.453 328.737-699.276 187.351-244.843-141.34-328.74-454.421-187.355-699.254 141.34-244.843 454.424-328.75 699.25-187.378 244.846 141.389 328.783 454.453 187.381 699.28zM716.756 93.372c-195.845-113.111-446.335-45.992-559.413 149.892-113.105 195.845-45.962 446.331 149.889 559.387 195.858 113.105 446.335 45.992 559.42-149.886 113.088-195.874 45.966-446.309-149.895-559.394zM696.283 468.808l-268.054 156.335c-24.427 14.261-44.13 2.859-43.993-25.396l1.373-310.309c0.124-28.248 20.068-39.748 44.567-25.598l266.003 153.577c24.473 14.124 24.525 37.13 0.104 51.391z" />
<glyph unicode="&#xe931;" glyph-name="pause15" d="M409.621 601.572c-28.255 0-51.193-22.911-51.193-51.193v-204.735c0-28.262 22.937-51.193 51.193-51.193s51.193 22.931 51.193 51.193v204.735c0 28.308-22.937 51.193-51.193 51.193zM955.328 703.958c-141.361 244.846-454.459 328.745-699.285 187.357-244.846-141.345-328.745-454.426-187.357-699.263 141.342-244.846 454.43-328.754 699.259-187.38 244.849 141.388 328.761 454.459 187.383 699.285zM716.765 93.364c-195.847-113.113-446.34-45.992-559.42 149.894-113.106 195.847-45.963 446.34 149.891 559.394 195.86 113.106 446.34 45.992 559.427-149.888 113.090-195.873 45.966-446.311-149.897-559.401zM614.379 601.572c-28.249 0-51.193-22.911-51.193-51.193v-204.735c0-28.262 22.944-51.219 51.193-51.219 28.262 0 51.193 22.931 51.193 51.219v204.735c0 28.308-22.931 51.193-51.193 51.193z" />
<glyph unicode="&#xe932;" glyph-name="Sendbutton" d="M0 9.143l1024 438.857-1024 438.857v-341.333l731.429-97.524-731.429-97.524z" />
<glyph unicode="&#xe933;" glyph-name="no-internet-connection-sign-of-phone-interface" d="M367.433 487.073c-47.066 0-85.219-38.134-85.219-85.221v-248.549c0-47.046 38.154-85.217 85.219-85.217h12.691c47.066 0 85.219 38.152 85.219 85.217v248.549c0 47.066-38.152 85.221-85.219 85.221h-12.691zM646.752 68.086h12.691c47.066 0 85.219 38.152 85.219 85.217v390.59c0 47.046-38.154 85.219-85.219 85.219h-12.691c-47.066 0-85.219-38.154-85.219-85.219v-390.59c0.018-47.044 38.171-85.217 85.219-85.217zM938.781 827.932h-12.711c-47.046 0-85.2-38.152-85.2-85.219v-589.428c0-47.046 38.154-85.217 85.2-85.217h12.711c47.066 0 85.219 38.152 85.219 85.217v589.449c0 47.046-38.152 85.198-85.219 85.198zM202.849 153.303v146.781c0 47.046-38.175 85.217-85.219 85.217h-12.693c-47.066 0-85.219-38.152-85.219-85.217v-146.781c0-47.046 38.173-85.217 85.219-85.217h12.693c47.044 0 85.219 38.173 85.219 85.217zM45.962 480.806l63.479 63.479 63.458-63.479c10.518-10.518 27.557-10.518 38.075 0 10.538 10.518 10.518 27.559 0 38.075l-63.458 63.46 63.458 63.458c10.518 10.518 10.518 27.557 0 38.075s-27.559 10.518-38.075 0l-63.458-63.458-63.479 63.46c-10.518 10.518-27.559 10.518-38.075 0-10.518-10.518-10.518-27.538 0-38.056l63.479-63.479-63.46-63.458c-10.518-10.518-10.518-27.557 0-38.075 10.499-10.518 27.559-10.518 38.056-0.002z" />
<glyph unicode="&#xe934;" glyph-name="edit-picture" d="M807.807 760.919l-17.534-19.292v132.533h-790.273v-852.321h790.228v447.692l152.701 167.907-135.123 123.48zM728.225 83.845c-54.27 0-611.82 0-666.132 0 0 54.928 0 673.252 0 728.225 54.313 0 611.865 0 666.132 0 0-14.37 0-67.452 0-138.728l-214.311-235.667 135.037-123.568 79.274 87.139c0-151.56 0-292.442 0-317.401zM1012.889 759.030l-90.128 82.393c-12.26 11.337-30.276 12.129-39.725 1.67l-44.471-52.204 135.037-123.48 44.559 52.204c9.536 10.369 7.118 28.211-5.272 39.417zM433.059 226.878l6.855-6.415 176.037 58.972-135.214 123.525zM355.631 268.36c0-62.687-50.818-113.504-113.504-113.504s-113.504 50.818-113.504 113.504c0 62.687 50.818 113.504 113.504 113.504s113.504-50.818 113.504-113.504zM107.837 497.612h278.422l-139.299 207.148z" />
<glyph unicode="&#xe935;" glyph-name="forum-user1" d="M512.002 414.556c151.53 0.008 206.050 151.729 220.326 276.358 17.582 153.535-55.017 269.086-220.326 269.086-165.282 0-237.921-115.543-220.326-269.084 14.289-124.627 68.792-276.371 220.326-276.36zM921.903 53.278c-1.656 48.362-7.324 96.944-15.763 144.553-10.225 57.674-23.239 142.226-73.592 179.811-29.12 21.732-66.829 28.861-100.166 41.966-16.225 6.375-30.76 12.706-44.402 19.913-46.043-50.491-106.081-76.904-175.997-76.907-69.896 0-129.928 26.413-175.966 76.907-13.642-7.208-28.177-13.541-44.402-19.913-33.337-13.105-71.046-20.232-100.163-41.966-50.357-37.585-63.369-122.137-73.592-179.811-8.441-47.609-14.11-96.191-15.765-144.553-1.282-37.458 17.214-42.708 48.551-54.018 39.242-14.152 79.755-24.658 120.539-33.27 78.769-16.633 159.963-29.418 240.809-29.99 80.846 0.574 162.040 13.357 240.809 29.99 40.784 8.609 81.301 19.115 120.539 33.27 31.349 11.306 49.843 16.556 48.561 54.018z" />
<glyph unicode="&#xe936;" glyph-name="cancel-music" d="M633.703 448l365.094 365.094c33.607 33.607 33.607 88.095 0 121.698-33.607 33.607-88.091 33.607-121.698 0l-365.099-365.099-365.099 365.104c-33.607 33.607-88.091 33.607-121.698 0-33.603-33.607-33.603-88.095 0-121.698l365.099-365.094-365.099-365.099c-33.603-33.607-33.603-88.095 0-121.698 33.607-33.607 88.091-33.607 121.698 0l365.099 365.099 365.099-365.099c33.603-33.607 88.091-33.607 121.698 0s33.607 88.091 0 121.698l-365.094 365.094z" />
<glyph unicode="&#xe937;" glyph-name="logout-outlined-button" d="M922.523 712.312h-207.765c-28.84 25.546-61.595 47.019-97.929 64.136-52.14 24.563-112.032 40.243-178.53 46.786v28.536c0 14.271-2.9 28.046-8.623 40.938-5.461 12.306-13.231 23.222-23.095 32.447-18.81 17.59-43.342 27.278-69.076 27.278-26.184 0-51.024-10.129-69.943-28.519l-236.211-229.606c-9.914-9.635-17.61-20.987-22.872-33.736-5.060-12.259-7.621-25.206-7.611-38.486 0.010-13.278 2.591-26.224 7.671-38.472 5.283-12.74 12.996-24.080 22.926-33.701l201.277-195.046v-310.685c0-55.478 45.135-100.613 100.611-100.613h589.175c55.476 0 100.611 45.135 100.611 100.613v567.519c-0.007 55.476-45.14 100.611-100.616 100.611zM83.023 641.149l236.209 229.606c5.359 5.211 11.88 7.545 18.271 7.545 13.622 0 26.66-10.598 26.66-26.53v-73.139c0-14.252 11.285-25.961 25.527-26.454 77.12-2.67 139.192-17.462 189.154-39.864 44.164-19.8 78.86-45.547 106.102-74.134 70.518-74.001 91.104-167.024 96.73-225.118 1.604-16.564-11.764-29.010-26.413-29.010-4.75 0-9.632 1.308-14.187 4.209-58.929 37.547-178.322 97.086-349.512 102.935-0.308 0.010-0.616 0.016-0.922 0.016-14.562 0-26.482-11.805-26.482-26.482v-71.459c0-15.929-13.038-26.528-26.658-26.528-6.38 0-12.885 2.322-18.243 7.514l-236.209 228.9c-10.72 10.388-10.734 27.588-0.026 37.996zM948.998 44.18c0-14.624-11.854-26.478-26.477-26.478h-589.171c-14.623 0-26.477 11.854-26.477 26.478v253.244c9.8-3.156 20.103-4.823 30.632-4.823 25.738 0 50.269 9.691 69.080 27.286 9.862 9.224 17.63 20.141 23.092 32.44 5.721 12.894 8.623 26.667 8.623 40.937v20.425c128.716-13.503 218.439-59.595 262.944-87.951 16.248-10.352 34.928-15.822 54.024-15.822 28.351 0 55.573 12.077 74.692 33.132 18.939 20.861 28.236 48.985 25.508 77.159-5.674 58.615-23.656 141.366-75.645 217.971h142.704c14.621 0 26.477-11.854 26.477-26.477l-0.003-567.523zM922.525-57.298h-589.175c-55.954 0-101.476 45.522-101.476 101.478v310.318l-201.013 194.793c-10.014 9.703-17.793 21.14-23.123 33.992-5.122 12.352-7.725 25.407-7.737 38.803-0.009 13.394 2.573 26.454 7.678 38.817 5.309 12.861 13.070 24.308 23.069 34.027l236.209 229.604c19.082 18.549 44.136 28.764 70.547 28.764 25.956 0 50.697-9.77 69.666-27.511 9.95-9.305 17.788-20.316 23.296-32.729 5.771-13.003 8.697-26.895 8.697-41.288v-27.752c66.231-6.593 126.125-22.332 178.033-46.787 36.147-17.028 69.076-38.576 97.887-64.054h207.436c55.954 0 101.476-45.522 101.478-101.476v-567.521c0-55.954-45.521-101.476-101.475-101.476zM337.505 951.567c-25.957 0-50.582-10.042-69.341-28.275l-236.211-229.606c-9.827-9.552-17.457-20.806-22.676-33.447-5.015-12.152-7.555-24.988-7.545-38.154s2.57-26.001 7.606-38.144c5.238-12.633 12.885-23.872 22.728-33.412l201.539-195.3v-311.051c0-55 44.745-99.747 99.746-99.747h589.175c54.999 0 99.746 44.745 99.746 99.747v567.523c-0.002 55-44.747 99.746-99.747 99.746h-208.092l-0.246 0.216c-28.747 25.463-61.625 46.997-97.725 64.002-51.934 24.464-111.904 40.179-178.246 46.706l-0.78 0.076v29.322c0 14.15-2.876 27.806-8.549 40.587-5.413 12.198-13.117 23.021-22.896 32.166-18.648 17.44-42.97 27.044-68.484 27.044zM922.523 16.837h-589.173c-15.076 0-27.342 12.266-27.342 27.344v254.431l1.13-0.365c9.848-3.172 20.065-4.781 30.367-4.781 25.516 0 49.838 9.608 68.488 27.053 9.774 9.139 17.476 19.96 22.893 32.16 5.673 12.787 8.549 26.44 8.549 40.585v21.385l0.955-0.102c130.279-13.666 220.896-61.052 263.317-88.080 16.106-10.262 34.625-15.685 53.559-15.685 28.105 0 55.097 11.973 74.051 32.848 18.778 20.681 27.992 48.561 25.286 76.495-5.477 56.573-23.023 140.243-75.5 217.57l-0.915 1.352h144.335c15.076 0 27.342-12.266 27.342-27.342v-567.523c-0.002-15.078-12.266-27.344-27.342-27.344zM307.738 296.242v-252.062c0-14.123 11.489-25.613 25.611-25.613h589.173c14.123 0 25.611 11.49 25.611 25.613l0.002 567.523c0 14.123-11.49 25.611-25.611 25.611h-141.073c51.974-77.251 69.412-160.578 74.879-217.025 2.751-28.416-6.626-56.781-25.729-77.824-19.283-21.237-46.739-33.418-75.332-33.418-19.264 0-38.107 5.517-54.488 15.957-42.189 26.882-132.198 73.96-261.613 87.719v-19.461c0-14.387-2.926-28.28-8.697-41.288-5.512-12.413-13.347-23.421-23.291-32.72-18.971-17.746-43.714-27.518-69.67-27.518-10.092 0-20.101 1.516-29.771 4.506zM337.505 365.872c-7.092 0-13.609 2.682-18.847 7.756l-236.207 228.901c-5.356 5.19-8.308 12.155-8.315 19.613-0.005 7.458 2.937 14.427 8.286 19.626l236.207 229.607c5.242 5.096 11.769 7.789 18.875 7.789 17.229 0 27.525-13.929 27.525-27.395v-73.139c0-13.87 10.847-25.111 24.692-25.591 72.198-2.501 135.948-15.938 189.477-39.94 41.184-18.463 76.972-43.472 106.377-74.328 69.106-72.52 90.874-162.727 96.965-225.632 0.751-7.761-1.675-15.164-6.83-20.842-5.259-5.794-12.71-9.116-20.442-9.116-5.122 0-10.189 1.502-14.652 4.344-56.281 35.861-176.472 96.903-349.076 102.8-0.296 0.009-0.595 0.014-0.893 0.014-14.124 0-25.617-11.492-25.617-25.617v-71.459c-0.002-13.462-10.296-27.39-27.525-27.39zM337.503 877.435c-6.645 0-12.755-2.523-17.667-7.299l-236.209-229.606c-5.010-4.87-7.766-11.399-7.761-18.385s2.772-13.512 7.787-18.373l236.209-228.898c4.908-4.755 11.008-7.27 17.641-7.27 16.146 0 25.793 13.048 25.793 25.663v71.459c0 15.394 12.788 27.866 28.297 27.33 173.015-5.911 293.516-67.114 349.948-103.070 4.184-2.665 8.929-4.074 13.723-4.074 7.247 0 14.232 3.117 19.162 8.547 4.823 5.313 7.093 12.243 6.387 19.513-6.065 62.632-27.728 152.441-96.496 224.604-29.245 30.692-64.854 55.57-105.828 73.942-53.325 23.909-116.857 37.296-188.83 39.789-14.784 0.51-26.362 12.51-26.362 27.319v73.143c0.002 12.615-9.648 25.663-25.793 25.663z" />
<glyph unicode="&#xe938;" glyph-name="web" d="M762.034-64h-128.163c-13.348 0-24.182 10.834-24.182 24.182v224.697c0 29.114-23.697 52.812-52.861 52.812h-89.909c-29.164 0-52.861-23.697-52.861-52.812v-224.697c0-13.348-10.833-24.182-24.18-24.182h-128.648c-55.812 0-101.225 45.366-101.225 101.176v352.328c-30.468-0.145-77.14-2.418-77.235-2.418-7.062-1.015-13.542 2.224-18.378 7.060-41.157 41.207-41.351 121.828-0.435 162.744l373.219 373.219c39.754 39.851 109.206 39.851 149.056 0l373.174-373.221c19.635-19.635 31-49.282 31.194-81.25 0.192-32.21-10.93-61.953-30.567-81.541-4.836-4.838-11.366-7.691-18.329-7.062-0.145 0-48.267 1.983-78.35 2.418v-352.328c-0.095-55.714-45.508-101.126-101.32-101.126zM658.053-15.636h103.981c29.164 0 52.861 23.697 52.861 52.814v374.042c0 26.647 27.18 26.647 51.122 26.647 21.279 0 49.862-1.161 65.871-1.885 6.625 10.349 10.398 24.374 10.301 39.319-0.145 19.152-6.481 36.853-17.023 47.347l-373.173 373.221c-21.523 21.522-59.15 21.522-80.623 0l-373.27-373.173c-20.119-20.119-21.956-62.001-5.706-86.715 15.863 0.726 44.107 1.885 65.145 1.885 22.634 0 50.831 0 50.831-26.647v-374.042c0-29.115 23.697-52.814 52.861-52.814h104.466v200.515c0 55.762 45.413 101.176 101.225 101.176h89.86c55.812 0 101.225-45.364 101.225-101.176v-200.515h0.047zM868.241 486.231c-4.982 0-9.915 1.886-13.686 5.659l-308.802 308.8c-18.087 18.137-49.622 18.137-67.662 0l-308.849-308.8c-7.545-7.545-19.781-7.545-27.326 0s-7.545 19.829 0 27.373l308.802 308.802c32.694 32.645 89.666 32.694 122.36 0l308.802-308.8c7.543-7.545 7.543-19.829 0-27.373-3.774-3.774-8.707-5.66-13.64-5.66z" />
<glyph unicode="&#xe939;" glyph-name="utube" d="M511.841-64c-0.031 0-0.069 0-0.106 0-282.77 0-512 229.23-512 512s229.23 512 512 512c282.77 0 512-229.23 512-512 0-0.031 0-0.069 0-0.106 0-282.711-229.183-511.894-511.894-511.894 0 0 0 0 0 0zM511.841 907.564c-0.052 0-0.114 0-0.177 0-253.81 0-459.564-205.754-459.564-459.564s205.754-459.564 459.564-459.564c253.81 0 459.564 205.754 459.564 459.564 0 0.005 0 0.011 0 0.018 0 253.745-205.655 459.456-459.379 459.546zM706.578 151.57h-363.802c-1.154-0.056-2.505-0.088-3.864-0.088-45.095 0-81.964 35.223-84.595 79.658l-0.011 182.963c2.642 44.667 39.51 79.89 84.606 79.89 1.359 0 2.711-0.032 4.054-0.095l363.612 0.007c1.148 0.056 2.494 0.087 3.847 0.087 45.095 0 81.963-35.222 84.595-79.657l0.011-182.963c-2.642-44.666-39.511-79.889-84.606-79.889-1.353 0-2.699 0.032-4.036 0.094zM412.107 432.463l-120.214 0.177v-28.072h37.535v-193.148h37.623v192.618h45.091v28.425zM502.237 375.261h-37.606v-102.753c0.28-3.724 0.44-8.067 0.44-12.447s-0.16-8.723-0.473-13.022c-3.038-7.369-16.774-15.844-22.124-0.307-0.3 4.035-0.471 8.741-0.471 13.486 0 4.075 0.126 8.121 0.375 12.134l-0.186 102.909h-37.376l0.106-101.87c0-15.537-0.371-27.189 0.124-32.486-0.117-1.024-0.183-2.211-0.183-3.414 0-9.065 3.779-17.247 9.847-23.058 16.925-11.663 49.34 1.755 57.462 18.35v-21.186l30.19-0.177v163.84zM622.433 343.128c0 32.662-25.582 52.259-60.257 25.777l0.141 63.559h-37.553l-0.177-219.63 30.879 0.53 2.807 13.594c39.477-34.604 64.3-10.77 64.23 30.543zM740.175 268.977l-28.248-0.177c0-1.059 0-2.295 0-3.708v-15.007c-0.3-8.061-6.908-14.482-15.015-14.482-0.134 0-0.267 0.002-0.4 0.005h-5.506c-0.114-0.003-0.247-0.005-0.381-0.005-8.111 0-14.722 6.419-15.031 14.454l-0.001 39.576h64.547v23.128c0.039 1.938 0.061 4.222 0.061 6.512 0 13.068-0.721 25.967-2.126 38.661-4.467 29.156-49.541 34.099-72.246 18.386-7.223-4.891-12.721-11.848-15.693-20.019-3.171-9.928-4.946-21.020-4.946-32.526 0-1.39 0.026-2.773 0.077-4.151l-0.006-50.825c-0.088-84.745 107.785-72.916 94.914 0.177zM693.018 353.721h2.278c0.098 0.002 0.213 0.003 0.329 0.003 8.897 0 16.149-7.046 16.478-15.863l-0.423-19.804h-35.61l0.177 19.774c0.311 8.843 7.555 15.893 16.445 15.893 0.115 0 0.23-0.001 0.345-0.004zM578.119 238.433c-0.456-0.049-0.985-0.077-1.521-0.077-7.575 0-13.842 5.599-14.889 12.885l-0.009 96.301c1.873 7.465 8.524 12.906 16.446 12.906s14.573-5.44 16.421-12.789l0.025-96.338c-1.071-7.37-7.346-12.967-14.929-12.967-0.544 0-1.080 0.029-1.609 0.085zM644.943 548.105c-2.469-5.225-6.067-9.559-10.501-12.823-4.017-2.721-8.856-4.306-14.066-4.306-0.152 0-0.304 0.001-0.456 0.004-0.256-0.010-0.584-0.016-0.913-0.016-5.349 0-10.344 1.517-14.578 4.145-3.87 2.624-6.978 6.345-8.86 10.717-1.848 4.291-3.1 9.078-3.578 14.092-0.456 5.136-0.739 14.846-0.739 29.5v114.935h34.428v-132.59c0.463-7.229 6.439-12.917 13.745-12.917s13.282 5.688 13.742 12.877l0.002 132.631h32.998v-170.372h-41.931zM557.321 547.399c-3.951-6.125-9.429-10.956-15.904-14.025-6.683-3.004-14.216-4.696-22.143-4.696-0.292 0-0.582 0.002-0.873 0.007-0.533-0.019-1.211-0.029-1.891-0.029-8.002 0-15.67 1.434-22.759 4.060-5.907 2.244-11.168 6.338-14.927 11.583-3.78 5.531-6.525 11.937-7.888 18.84-1.576 9.003-2.447 18.993-2.447 29.187 0 1.647 0.023 3.289 0.068 4.925l-0.005 44.78c-0.045 1.302-0.071 2.832-0.071 4.367 0 12.065 1.585 23.759 4.557 34.886 2.548 8.161 7.943 15.773 15.076 21.227 7.532 5.291 16.761 8.41 26.718 8.41 0.637 0 1.271-0.013 1.902-0.038 0.348 0.016 0.864 0.023 1.382 0.023 8.533 0 16.608-1.962 23.798-5.458 6.271-3.186 11.692-7.98 15.667-13.836 3.564-5.192 6.239-11.093 7.771-17.44 1.446-7.583 2.23-15.89 2.23-24.381 0-1.363-0.020-2.721-0.060-4.074l0.005-42.88c0.033-1.44 0.052-3.137 0.052-4.838 0-10.56-0.731-20.948-2.146-31.118-1.259-6.642-4.146-13.596-8.234-19.675zM534.687 665.159c0.011 0.229 0.018 0.497 0.018 0.767 0 9.205-7.462 16.666-16.666 16.666s-16.666-7.462-16.666-16.666c0-0.27 0.006-0.538 0.019-0.805l-0.001-90.71c-0.011-0.229-0.018-0.497-0.018-0.767 0-9.205 7.462-16.666 16.666-16.666s16.666 7.462 16.666 16.666c0 0.27-0.006 0.538-0.019 0.805l0.001 90.71zM424.942 528.684h-39.548v130.472l-49.699 112.287h42.796l25.194-83.332 24.841 82.979h43.238l-46.716-111.757z" />
<glyph unicode="&#xe93a;" glyph-name="Achievements" horiz-adv-x="813" d="M791.552 436.814l-157.462 20.736 104.559 473.177c0.221 1.252 0.348 2.693 0.348 4.163 0 13.81-11.149 25.016-24.937 25.11h-615.099c-13.797-0.093-24.946-11.3-24.946-25.11 0-1.471 0.126-2.912 0.369-4.313l105.773-473.027-158.698-20.736c-12.073-1.307-21.388-11.443-21.388-23.755 0-7.012 3.022-13.319 7.834-17.688l185.764-176.847-46.748-253.696c-0.239-1.28-0.375-2.753-0.375-4.257 0-13.444 10.898-24.342 24.342-24.342 4.294 0 8.328 1.112 11.83 3.063l223.765 121.926 223.889-123.214c-27.058 15.917 35.673-28.049 35.673 25.6l-46.748 253.696 185.756 176.84c4.533 4.566 7.334 10.855 7.334 17.8 0 12.388-8.916 22.694-20.68 24.851zM431.115 911.215h252.182l-99.651-447.566-45.512 6.099-107.019 228.051v213.415zM129.714 911.215h252.193v-213.415l-106.986-228.051-45.512-6.099zM576.267 244.135c-4.76-4.478-7.725-10.818-7.725-17.851 0-1.448 0.126-2.866 0.367-4.245l39.347-215.695-189.451 104.849c-3.303 2.302-7.401 3.677-11.82 3.677-0.149 0-0.297-0.002-0.445-0.005-4.55-0.081-8.788-1.439-12.373-3.73l-190.58-104.792 39.368 215.841c0.22 1.232 0.345 2.651 0.345 4.099 0 7.033-2.965 13.373-7.712 17.839l-156.306 151.23 215.285 28.049c8.336 0.691 15.291 5.964 18.389 13.269l93.55 197.709 92.26-197.565c3.729-6.987 10.392-11.989 18.299-13.389l215.44-28.071z" />
</font>
</defs>
</svg>
